<?xml version="1.0" encoding="UTF-8"?>
<svg version="1.1" xmlns="http://www.w3.org/2000/svg" width="1024" height="1024">
<path d="M0 0 C337.92 0 675.84 0 1024 0 C1024 337.92 1024 675.84 1024 1024 C686.08 1024 348.16 1024 0 1024 C0 686.08 0 348.16 0 0 Z " fill="#1C2028" transform="translate(0,0)"/>
<path d="M0 0 C6.00676743 -0.00164567 12.01353218 -0.0046104 18.02029842 -0.00870216 C28.52938338 -0.01583557 39.03844961 -0.01721281 49.54753584 -0.01226884 C53.07105106 -0.0107564 56.59455507 -0.01140933 60.11806959 -0.01402742 C64.20895194 -0.01691748 68.29980385 -0.01494341 72.390683 -0.00925225 C73.86880116 -0.00796766 75.34692194 -0.00832272 76.82503897 -0.01055998 C83.72153292 -0.02001318 90.60997097 0.05463319 97.49794859 0.41535681 C99.01320489 0.49300363 99.01320489 0.49300363 100.55907243 0.57221907 C105.27961173 1.51369455 108.32540194 4.48439073 111.31623167 8.12211341 C112.91817943 11.32600894 112.66790777 14.63791498 112.31623167 18.12211341 C110.49720199 23.27603084 107.78513563 26.02825682 103.31623167 29.12211341 C96.83740285 31.6276264 90.47857624 31.4017238 83.60089964 31.37608069 C82.31762218 31.37920067 81.03434473 31.38232065 79.71218008 31.38553518 C76.16137985 31.39386764 72.61068743 31.38976498 69.05988687 31.38356274 C65.22615868 31.37903291 61.39244887 31.38602465 57.55872434 31.39152259 C50.05286217 31.40041255 42.54704 31.39849634 35.04117626 31.3926973 C28.94061766 31.38817927 22.84007027 31.38756853 16.73951048 31.38974494 C15.87101654 31.3900514 15.0025226 31.39035787 14.10771066 31.39067362 C12.34334351 31.39131308 10.57897637 31.3919615 8.81460923 31.39261881 C-7.72715314 31.39832094 -24.26889334 31.39176604 -40.81065208 31.38101807 C-55.00209256 31.37208267 -69.19350032 31.37363474 -83.38494021 31.38285559 C-99.86779672 31.39356028 -116.35063379 31.39777162 -132.83349329 31.39163107 C-134.59134457 31.39099397 -136.34919585 31.39036523 -138.10704714 31.38974494 C-138.97192787 31.38943639 -139.83680859 31.38912784 -140.72789782 31.38880993 C-146.82063496 31.38708359 -152.91335977 31.38999679 -159.00609499 31.39470404 C-166.43180087 31.40031508 -173.85746447 31.39879173 -181.28316551 31.38814256 C-185.07135348 31.38288885 -188.85947097 31.38082398 -192.64765841 31.38744086 C-196.75464565 31.39450606 -200.86145516 31.38606583 -204.9684363 31.37608069 C-206.16502934 31.38054214 -207.36162237 31.38500358 -208.59447581 31.38960022 C-222.12289548 31.32565516 -222.12289548 31.32565516 -227.37126833 26.80961341 C-228.13439333 25.92273841 -228.89751833 25.03586341 -229.68376833 24.12211341 C-230.44689333 23.37961341 -231.21001833 22.63711341 -231.99626833 21.87211341 C-234.03430107 18.55087487 -234.43263244 16.33604562 -234.27751833 12.47758216 C-233.16706335 8.07229037 -230.09942869 4.98922018 -226.68376833 2.12211341 C-223.9105756 1.19771583 -222.22223502 0.98793222 -219.35770327 0.96389502 C-218.46690223 0.95410558 -217.57610119 0.94431613 -216.65830618 0.93423003 C-215.1857891 0.92559778 -215.1857891 0.92559778 -213.68352419 0.91679114 C-212.63883565 0.90689721 -211.59414711 0.89700328 -210.51780134 0.88680953 C-206.97809519 0.8547868 -203.4383784 0.83011943 -199.89861208 0.80570716 C-197.33972116 0.78488931 -194.78083244 0.76379926 -192.22194582 0.74245948 C-185.17191884 0.68506449 -178.12184572 0.63637547 -171.07174212 0.58948249 C-167.37240045 0.56484839 -163.6730699 0.5388543 -159.97374094 0.51238817 C-106.64961402 0.1313012 -53.32538921 0.01429032 0 0 Z " fill="#67FAEF" transform="translate(535.6837683320045,391.8778865933418)"/>
<path d="M0 0 C1.71108991 -0.01265991 1.71108991 -0.01265991 3.45674729 -0.02557558 C4.71557402 -0.01956553 5.97440075 -0.01355549 7.27137375 -0.00736332 C8.61778832 -0.01153393 9.96419937 -0.01700995 11.31060386 -0.02368313 C15.01869574 -0.03819304 18.72656641 -0.03387583 22.43467069 -0.02651632 C26.43072068 -0.02180043 30.42672172 -0.03428062 34.4227562 -0.04453373 C42.25536954 -0.06175965 50.0879028 -0.06255371 57.92053017 -0.05732083 C64.28673101 -0.05328404 70.65290812 -0.05471683 77.01910782 -0.06006908 C78.37678121 -0.06119172 78.37678121 -0.06119172 79.76188235 -0.06233703 C81.60049664 -0.06386847 83.43911092 -0.06540682 85.27772519 -0.066952 C102.53433934 -0.08069138 119.7909082 -0.07522982 137.04752132 -0.06376678 C152.83713762 -0.05383836 168.62663667 -0.06676577 184.41623488 -0.09070098 C200.62188371 -0.11508202 216.82747791 -0.12470196 233.03314471 -0.11804825 C242.13414718 -0.11455311 251.23505951 -0.11680721 260.33604813 -0.13429928 C268.08577802 -0.14900906 275.83535435 -0.14967304 283.58508119 -0.13222837 C287.53938575 -0.12370482 291.49341584 -0.1216015 295.44770622 -0.13687992 C299.06879366 -0.15069761 302.68937078 -0.14600202 306.31042847 -0.12664068 C308.2387394 -0.12108745 310.16707611 -0.13517688 312.09533811 -0.14999479 C318.79643548 -0.09286402 323.14149213 0.27978935 328.54352951 4.38031673 C331.31566926 7.57893953 332.42303708 9.56699285 333.04352951 13.75531673 C332.24265293 19.56167193 330.23731962 23.76915053 325.98102951 27.81781673 C322.27245317 30.19510926 319.48700607 30.50659841 315.17796993 30.51453781 C314.057527 30.51899566 312.93708407 30.5234535 311.78268832 30.52804643 C310.54652516 30.52786207 309.310362 30.5276777 308.03673935 30.52748775 C306.72758916 30.53116444 305.41843897 30.53484113 304.06961757 30.53862923 C300.42807258 30.54865392 296.78654406 30.55236677 293.14498723 30.55501854 C289.22054602 30.55892013 285.29611789 30.56849848 281.37168503 30.57723141 C271.89118236 30.59699851 262.41067862 30.60706171 252.93016049 30.6159592 C248.46747453 30.62034114 244.00478975 30.62570814 239.54210472 30.63094807 C224.71087229 30.64795954 209.87964061 30.66245475 195.04839993 30.66969681 C191.19920157 30.67160675 187.35000323 30.67352708 183.5008049 30.67548275 C182.06572944 30.67620836 182.06572944 30.67620836 180.60166255 30.67694863 C165.09590606 30.68525283 149.59022662 30.71059668 134.08450379 30.74306343 C118.17154366 30.77611179 102.25862272 30.7941435 86.34562808 30.79734105 C77.40840522 30.79950806 68.47129476 30.80828475 59.5341053 30.83380222 C51.92453116 30.85547876 44.31509672 30.86357466 36.7054952 30.85383544 C32.82218583 30.84928203 28.9391649 30.85123701 25.05589485 30.87059689 C20.84748247 30.89139683 16.63971341 30.88127151 12.4312706 30.86806393 C11.2017996 30.87903317 9.97232861 30.89000242 8.70560092 30.90130407 C2.36047581 30.85304698 -1.66985544 30.72457997 -6.45647049 26.38031673 C-9.92975023 22.57829035 -12.79887438 18.45112286 -13.08147049 13.19281673 C-12.37856547 8.9050961 -11.18165014 6.72839459 -8.45647049 3.38031673 C-8.02889301 2.83773108 -7.60131552 2.29514542 -7.16078115 1.73611778 C-4.75027555 -0.18147042 -3.05869591 0.00318469 0 0 Z " fill="#FDFEFD" transform="translate(387.45647048950195,555.619683265686)"/>
<path d="M0 0 C6.88803426 3.45121347 11.81289911 8.55290605 17.09106445 14.06933594 C18.78784448 15.81909995 20.48702938 17.56653542 22.1887207 19.31152344 C22.92743408 20.08093262 23.66614746 20.8503418 24.42724609 21.64306641 C26.51794451 23.69354021 28.63428761 25.61006742 30.84863281 27.52099609 C35.00245191 31.12238548 38.88583045 34.94021338 42.74731445 38.85058594 C43.80057922 39.90953064 43.80057922 39.90953064 44.87512207 40.98986816 C47.84240212 43.97330969 50.80361808 46.96274304 53.76538086 49.95166016 C55.9447491 52.14924173 58.12721392 54.34371532 60.30981445 56.53808594 C60.96526245 57.20183228 61.62071045 57.86557861 62.29602051 58.54943848 C66.13030133 62.40368824 70.08612574 66.04040994 74.20153809 69.59216309 C76.61171657 71.70571908 78.87267482 73.94278208 81.12231445 76.22558594 C82.00790039 77.11890625 82.89348633 78.01222656 83.8059082 78.93261719 C85.62101237 80.77376302 87.43611654 82.61490885 89.2512207 84.45605469 C93.80190201 89.04647993 98.37605218 93.51399951 103.31201172 97.69042969 C107.37691024 101.25176874 110.45592016 104.4445895 112.15356445 109.63183594 C111.86658288 117.8108107 107.07556392 122.60970008 101.37231445 128.05371094 C98.75039958 130.44839319 96.09973213 132.80083529 93.40722656 135.11572266 C83.25594526 143.9865026 73.68804437 153.42293504 64.21606445 163.00683594 C61.90011253 165.34973618 59.5805949 167.68902697 57.2590332 170.02636719 C56.75051315 170.54318558 56.2419931 171.06000397 55.71806335 171.59248352 C52.96090896 174.3679262 50.13239062 176.99885251 47.16699219 179.55151367 C42.7522115 183.37454661 38.6697724 187.47906636 34.58325195 191.64746094 C32.99630054 193.25191268 31.40905221 194.8560708 29.8215332 196.45996094 C27.3518971 198.96063376 24.88468751 201.46356583 22.42260742 203.97167969 C20.02458455 206.41205701 17.61719093 208.84286501 15.20825195 211.27246094 C14.11116409 212.39748016 14.11116409 212.39748016 12.99191284 213.54522705 C6.92622782 219.64108261 2.31695984 222.62288572 -6.53393555 222.69433594 C-8.45399414 222.74074219 -8.45399414 222.74074219 -10.4128418 222.78808594 C-15.68220973 221.90889392 -17.57169658 218.93194293 -20.78393555 214.94433594 C-22.54608774 210.86356244 -22.75781259 207.55836662 -21.97143555 203.19433594 C-18.57997881 196.51771393 -13.420543 191.23118488 -8.09643555 186.06933594 C-7.42741211 185.40546875 -6.75838867 184.74160156 -6.0690918 184.05761719 C-2.076533 180.12660072 2.04499425 176.3898564 6.28295898 172.72607422 C8.29014534 170.96480328 10.17401981 169.11511432 12.02856445 167.19433594 C14.46921793 164.66651627 17.008738 162.33596542 19.6730957 160.04980469 C23.95533664 156.31263779 27.9730658 152.36125559 31.96606445 148.31933594 C32.69043701 147.59117676 33.41480957 146.86301758 34.16113281 146.11279297 C36.45274749 143.80907948 38.74107098 141.50214119 41.02856445 139.19433594 C44.04641526 136.14968814 47.06769862 133.10850627 50.09106445 130.06933594 C50.76838623 129.38371582 51.44570801 128.6980957 52.14355469 127.99169922 C57.77983653 122.32696183 63.58790753 116.93820798 70.02856445 112.19433594 C68.66711138 109.05825249 67.23344656 107.27980144 64.59106445 105.13183594 C58.5691138 100.03383078 53.12619044 94.35045964 47.59204102 88.73730469 C42.51087151 83.59023605 37.41282796 78.52700055 31.91430664 73.82177734 C28.57248005 70.93769966 25.3693833 67.90482396 22.15356445 64.88183594 C21.45593994 64.22812012 20.75831543 63.5744043 20.03955078 62.90087891 C16.18747353 59.27670619 12.41407373 55.60018062 8.71606445 51.81933594 C5.42713184 48.47503408 2.0096109 45.49224287 -1.65893555 42.56933594 C-6.35022191 38.80708241 -10.21567758 34.87392402 -13.97143555 30.19433594 C-14.68686523 29.33066406 -15.40229492 28.46699219 -16.1394043 27.57714844 C-20.65754198 22.05942277 -23.38142086 18.69478547 -23.24487305 11.25292969 C-22.77789598 7.73725952 -21.29211319 5.81253636 -18.97143555 3.19433594 C-13.23041416 -1.16884031 -6.9198121 -2.82791083 0 0 Z " fill="#69FDF6" transform="translate(605.971435546875,296.8056640625)"/>
<path d="M0 0 C4.0321549 1.8277242 6.53526711 4.30290067 9 8 C9.96346751 13.65110754 9.72165716 18.65508569 6.625 23.5625 C2.61660789 28.86576462 -2.20944291 33.41442713 -7 38 C-8.13158744 39.12917895 -9.26274808 40.25878846 -10.39189148 41.39041138 C-12.36197158 43.36230473 -14.33697326 45.32921541 -16.31201172 47.29614258 C-20.3687977 51.3369192 -24.42337159 55.37990608 -28.47633171 59.42451954 C-30.91697605 61.85995157 -33.35854726 64.29443918 -35.80224609 66.72680664 C-38.6392218 69.55072119 -41.47203458 72.37878051 -44.3046875 75.20703125 C-45.60501419 76.49961601 -45.60501419 76.49961601 -46.93161011 77.8183136 C-51.29884907 82.18515234 -55.52335526 86.61034197 -59.5353241 91.30703735 C-65.72260613 98.45867912 -72.76585953 104.92663852 -80 111 C-79.45501768 115.0970992 -77.11349211 117.66765171 -74.5 120.6875 C-74.0258667 121.24131348 -73.5517334 121.79512695 -73.06323242 122.36572266 C-64.36518407 132.33802483 -54.87268687 141.74059186 -44.86010742 150.38720703 C-42.18873012 152.70340581 -39.59133765 155.09503149 -37 157.5 C-36.45150391 158.00861572 -35.90300781 158.51723145 -35.33789062 159.04125977 C-34.16219563 160.13252985 -32.98707741 161.22442163 -31.8125 162.31689453 C-29.9935601 164.00598016 -28.16880559 165.68862062 -26.34375 167.37109375 C-18.80049649 174.35303846 -11.40085225 181.47620589 -4.10644531 188.71731567 C-2.71317119 190.09953254 -1.31560783 191.47742156 0.08203125 192.85522461 C1.3659375 194.13731812 1.3659375 194.13731812 2.67578125 195.4453125 C3.43802002 196.20344238 4.20025879 196.96157227 4.9855957 197.74267578 C7.97656811 201.09433387 9.83374135 203.76493577 10.4375 208.25 C9.73548166 214.26730007 7.64607116 219.93620408 3 224 C-1.43825743 226.48020268 -6.05171165 226.87083364 -11 226 C-19.63498224 222.39679969 -26.86409872 213.86613992 -33 207 C-33 206.34 -33 205.68 -33 205 C-33.66 205 -34.32 205 -35 205 C-36.34204102 203.63891602 -36.34204102 203.63891602 -37.94140625 201.69140625 C-42.21047241 196.67345863 -46.82256116 192.02654628 -51.48803711 187.3815918 C-52.93524385 185.93974779 -54.37702026 184.49262884 -55.81835938 183.04492188 C-60.52633842 178.33376673 -65.29661471 173.75142754 -70.35375977 169.41479492 C-72.30431955 167.73846481 -74.17094796 165.99538245 -76 164.1875 C-76.5775 163.62417969 -77.155 163.06085938 -77.75 162.48046875 C-79 161 -79 161 -79 159 C-79.55171875 158.77699219 -80.1034375 158.55398438 -80.671875 158.32421875 C-83.7305676 156.58445903 -85.8073812 154.34235518 -88.25 151.8125 C-91.96154413 148.01813629 -95.74080696 144.39306557 -99.76953125 140.9375 C-122.60568867 121.10083787 -122.60568867 121.10083787 -123.3125 113.75 C-122.31409407 101.76912878 -106.41256841 90.25295146 -98.22485352 82.09448242 C-96.4332405 80.3082533 -94.64706945 78.51670653 -92.86132812 76.72460938 C-91.69823728 75.56217911 -90.5348364 74.40005897 -89.37109375 73.23828125 C-88.85002548 72.71518875 -88.32895721 72.19209625 -87.792099 71.65315247 C-85.07981071 68.95759828 -82.31179926 66.3898172 -79.40087891 63.90966797 C-73.99481734 59.22278698 -69.02055344 54.09907937 -63.9971447 49.01117897 C-62.17890751 47.17065452 -60.35650613 45.33434797 -58.53285217 43.49919128 C-53.35372259 38.28670665 -48.17893632 33.06996864 -43.0144043 27.84301758 C-39.84103965 24.63189609 -36.66031191 21.42822592 -33.47482491 18.2291317 C-32.26924387 17.01553369 -31.06643781 15.79917211 -29.86655998 14.57993507 C-28.18740771 12.87414305 -26.49901987 11.17800888 -24.80834961 9.48364258 C-24.32244354 8.98537964 -23.83653748 8.4871167 -23.33590698 7.97375488 C-16.41867791 1.09601424 -9.74733769 -1.55851741 0 0 Z " fill="#FBFCFD" transform="translate(426,456)"/>
<path d="M0 0 C4.38997107 2.93361559 6.44182547 5.64293149 8.5625 10.4375 C9.0575 11.4275 9.0575 11.4275 9.5625 12.4375 C10.39271932 19.07925456 8.14127951 23.88097393 4.5625 29.4375 C0.16676958 34.63025847 -5.20190139 36.01015679 -11.75 36.875 C-17.68407083 36.1709577 -23.15663478 34.06127434 -27.15234375 29.46484375 C-31.0994124 23.34402715 -32.11714488 17.66187334 -31.4375 10.4375 C-29.34574015 4.39463821 -25.45001103 0.90872631 -19.75 -1.875 C-12.54404284 -3.37057601 -6.58738804 -3.64884862 0 0 Z " fill="#F9FAFB" transform="translate(261.4375,725.5625)"/>
<path d="M0 0 C3.81524609 2.95876227 6.87376627 5.99753254 9.0625 10.375 C10.04569328 24.06407563 10.04569328 24.06407563 6.0625 29.375 C0.8516316 34.47007133 -3.61908778 36.40902786 -10.8125 36.75 C-16.66374588 36.60921814 -21.16129354 34.95341058 -25.47265625 30.94921875 C-29.94751496 25.90032568 -31.43333257 21.33428668 -31.24609375 14.71484375 C-30.616073 9.937851 -28.78461653 6.10211824 -25.25390625 2.80078125 C-18.37548746 -2.36173092 -7.87576069 -4.18074521 0 0 Z " fill="#F9FBFB" transform="translate(781.9375,724.625)"/>
<path d="M0 0 C4.28474894 2.95220674 6.62476447 6.62038716 8.2734375 11.56640625 C8.81223807 17.92425298 7.94184558 22.27891682 4.2734375 27.56640625 C-0.04572372 32.35873401 -4.77979025 34.23898711 -11.1015625 34.94140625 C-17.51868521 34.27756597 -21.93107222 31.79212956 -26.1640625 26.94140625 C-30.35044592 21.71698225 -30.36686549 17.1561912 -29.7265625 10.56640625 C-27.78166589 4.17150163 -24.27533207 0.48466007 -18.4140625 -2.68359375 C-11.2888041 -4.67203796 -6.37776677 -3.44399405 0 0 Z " fill="#F7F9FA" transform="translate(521.7265625,726.43359375)"/>
<path d="M0 0 C4.00119244 2.54688448 7.00177143 6.11682411 9.1171875 10.34765625 C9.69079621 16.88679557 8.5899497 21.73121367 5.1171875 27.34765625 C0.75476192 32.39630608 -4.26366666 34.09419052 -10.7578125 34.72265625 C-16.29437012 34.54303511 -20.72877721 32.44562121 -24.68359375 28.59375 C-29.07655128 23.57172934 -30.19570429 20.57699107 -30.08984375 13.87890625 C-29.65684139 8.58483967 -27.31446349 5.54769287 -23.5078125 2.09765625 C-15.99100173 -3.89696111 -8.52121488 -4.11318158 0 0 Z " fill="#F8F9FA" transform="translate(260.8828125,226.65234375)"/>
<path d="M0 0 C5.27980092 3.09260015 9.95950158 7.61431565 12.71484375 13.125 C13.25563491 19.39817744 12.49998704 23.97544459 8.71484375 29.125 C2.95911094 34.40980922 -2.40867318 35.61154764 -10.13671875 35.52734375 C-16.0038024 34.77757996 -20.10062832 31.89562079 -23.7265625 27.296875 C-26.68980941 22.21702316 -27.2421647 16.88638418 -26.28515625 11.125 C-21.27192889 1.09854528 -10.8138912 -4.14070364 0 0 Z " fill="#F8FAFA" transform="translate(778.28515625,224.875)"/>
<path d="M0 0 C6.12008034 2.61343971 11.00613528 7.01227055 14 13 C14.50282832 18.50638223 14.71321529 23.40239776 12.4375 28.5 C7.92119374 33.13210898 2.82363212 35.76070914 -3.6875 36.3125 C-9.68461915 36.22414465 -14.23695983 33.80943596 -18.375 29.5625 C-21.5948698 24.485013 -22.86034124 20.04473519 -22 14 C-20.28846285 7.87752148 -16.8250847 4.30261216 -11.4296875 1.07421875 C-7.46874 -0.67700402 -4.21440176 -0.99558692 0 0 Z " fill="#F8FAFA" transform="translate(688,724)"/>
<path d="M0 0 C4.54898912 2.82453573 7.71573583 5.58975183 9.265625 10.859375 C10.25830177 16.88389609 9.21776706 21.6454599 6.015625 26.83984375 C1.9822569 31.49442256 -3.35802822 33.44247206 -9.296875 34.484375 C-16.90183007 33.1016559 -22.37550016 29.12525758 -26.734375 22.859375 C-28.32666148 18.08251557 -28.72871154 13.40095271 -26.86328125 8.6328125 C-21.20944675 -1.26603216 -10.64116172 -4.4388846 0 0 Z " fill="#F9FAFB" transform="translate(519.734375,226.140625)"/>
<path d="M0 0 C4.75099056 2.67302252 7.52363919 6.36129306 9.6875 11.3125 C10.59370896 16.91835079 9.731612 21.65374389 6.9609375 26.5859375 C4.5581155 29.84375137 1.51292969 31.58232813 -2.1875 33.0625 C-9.25446681 33.89390786 -14.45374506 33.61893525 -20.3125 29.3125 C-24.65746433 24.58036063 -26.74471241 20.06304832 -26.66015625 13.50390625 C-25.82855629 8.26202337 -22.47046997 4.38775783 -18.6875 0.875 C-12.96025629 -2.8929235 -6.13273961 -2.84816371 0 0 Z " fill="#F7F9FA" transform="translate(346.3125,726.6875)"/>
<path d="M0 0 C5.13562996 2.65752031 9.08497007 6.81350395 10.9140625 12.30078125 C11.30343199 17.13794837 11.56175627 21.6985914 9.7265625 26.23828125 C4.86926845 31.7655469 0.34567326 33.96868989 -6.9609375 34.67578125 C-12.91139424 34.50479111 -17.47598541 31.99329499 -21.5234375 27.73828125 C-24.82767391 22.58367245 -24.66811208 17.23896198 -24.0859375 11.30078125 C-22.60708564 6.50787581 -19.36666571 2.88511978 -15.20703125 0.18359375 C-10.35134411 -1.83737364 -4.94953731 -1.65911457 0 0 Z " fill="#F9FBFC" transform="translate(604.0859375,725.69921875)"/>
<path d="M0 0 C5.04440956 1.85934435 9.00432987 5.0464682 11.37109375 9.91796875 C12.9264317 15.06700682 12.98740141 20.26985786 11.15234375 25.34375 C8.72774654 29.74911985 5.81128534 32.42637851 1.171875 34.37109375 C-3.52394494 35.73085456 -7.63540063 35.98350593 -12.20703125 34.08203125 C-17.69100267 30.93815895 -20.97752108 27.06743677 -23 21 C-23.58644523 15.01825867 -22.35317044 10.87640945 -19 6 C-13.20366205 0.01143655 -8.12326586 -0.95374376 0 0 Z " fill="#F8FAFA" transform="translate(429,725)"/>
<path d="M0 0 C4.42769195 2.47455838 7.46802749 5.81105499 9.75 10.375 C10.35953693 15.62572524 10.71251988 20.73948273 7.75 25.3125 C3.69132822 30.06857736 -1.03075373 32.05285135 -7.125 32.9375 C-13.54033305 32.58250133 -19.40474917 29.26525695 -23.8125 24.75 C-26.40014452 20.47476123 -27.02792815 16.27856957 -26.25 11.375 C-24.03377301 6.28963267 -20.90495728 2.43747189 -16.25 -0.625 C-10.72542882 -2.46652373 -5.33994339 -2.4419855 0 0 Z " fill="#F7F9F9" transform="translate(692.25,226.625)"/>
<path d="M0 0 C4.68978883 4.23224846 8.20233758 8.19109235 8.9375 14.5625 C8.32337223 20.70377773 6.01871754 24.68292323 1.9375 29.25 C-2.56875996 32.00382553 -6.17646799 32.8301052 -11.4375 32.3125 C-18.00330255 30.22554679 -22.60537898 26.99887312 -26.4375 21.3125 C-28.13066536 16.23300393 -28.01270786 12.595656 -25.8125 7.6875 C-20.0924895 -1.3505237 -9.80161807 -4.81170342 0 0 Z " fill="#F7F9F9" transform="translate(347.4375,226.6875)"/>
<path d="M0 0 C5.30478185 2.43051792 9.30489237 5.73997172 11.6171875 11.25390625 C11.6790625 11.93453125 11.7409375 12.61515625 11.8046875 13.31640625 C11.9284375 14.38890625 12.0521875 15.46140625 12.1796875 16.56640625 C11.60856467 22.27763459 9.26211743 26.10471932 5.0078125 29.93359375 C0.90038953 32.84164921 -2.83801531 34.17314137 -7.890625 33.8671875 C-13.656081 32.48934124 -17.85080782 28.79208212 -21.7578125 24.50390625 C-24.1547537 19.18894968 -23.96137109 14.61458203 -22.1328125 9.12890625 C-16.65782322 1.18134116 -9.64255156 -3.00257388 0 0 Z " fill="#F8F9FA" transform="translate(603.1953125,225.68359375)"/>
<path d="M0 0 C4.13240287 2.34740045 7.02765388 4.97127214 8.8125 9.4375 C9.76301046 15.14897434 9.6877616 21.02059786 6.33203125 25.9296875 C2.53007902 29.70231877 -2.22401351 32.11527577 -7.55859375 32.6953125 C-13.1623075 32.365111 -18.01041712 30.17986385 -22.1875 26.4375 C-26.14623118 21.07728698 -25.96391907 15.8669478 -25.1875 9.4375 C-22.89120541 4.49163474 -19.87426135 2.12989482 -15.1875 -0.5625 C-9.84596265 -2.34301245 -5.11661611 -2.26759123 0 0 Z " fill="#F8FBFB" transform="translate(432.1875,226.5625)"/>
<path d="M0 0 C4.16912288 2.81563986 7.50983887 6.41774688 8.6328125 11.421875 C8.94391713 16.77287463 7.25472019 20.12681216 4.1875 24.4375 C-0.18711945 28.49202534 -3.60420971 29.81445241 -9.625 29.71484375 C-14.97979489 29.03593226 -18.8024292 26.34011646 -22.75 22.8125 C-25.47849414 18.34769141 -26.20845899 14.64271087 -25.8125 9.4375 C-24.58498654 4.94514171 -22.17327584 2.32031981 -18.1875 0 C-12.29280299 -2.53570765 -5.82208615 -2.92369978 0 0 Z " fill="#F8FAFB" transform="translate(780.8125,473.5625)"/>
<path d="M0 0 C5.67458259 1.89152753 9.32628019 5.65256038 12 11 C12.56350726 15.61891196 12.4422879 19.09841312 10.375 23.3125 C6.25960221 27.9693975 2.03898874 30.70205993 -4.1875 31.3125 C-10.06948412 30.83037015 -14.2585204 28.78730801 -18.375 24.5625 C-21.25232306 20.02518286 -22.66516839 16.43220851 -22 11 C-16.71720533 1.21704691 -10.46781716 -0.80065457 0 0 Z " fill="#F9FBFB" transform="translate(254,472)"/>
<path d="M0 0 C3.91305636 2.76777157 6.91328895 6.27716961 8.5625 10.8125 C9.37346932 15.91002145 7.76918712 18.87189132 4.99609375 22.98046875 C2.30734174 26.41650334 -0.31758907 28.43919636 -4.4375 29.8125 C-10.4202624 30.39904533 -14.53991122 29.12369589 -19.4375 25.8125 C-24.21056244 20.67227891 -24.7428905 17.35719292 -24.64453125 10.5078125 C-24.3804057 7.06919686 -23.81211613 5.34031717 -21.4375 2.8125 C-14.89044495 -2.23418827 -7.77898143 -2.6872845 0 0 Z " fill="#F8FAFA" transform="translate(780.4375,639.1875)"/>
<path d="M0 0 C4.40112424 2.55495977 7.45047042 5.41525746 9.6484375 10.0859375 C10.51421438 16.05017825 9.52162041 19.47913671 6.0546875 24.390625 C2.84736033 28.25723608 -0.33359246 29.25528936 -5.1640625 30.0234375 C-10.45138095 30.4095457 -14.09977721 29.21831512 -18.3515625 26.0859375 C-22.70281916 21.51153947 -23.76945341 17.59808345 -23.69921875 11.4375 C-22.96459472 6.46847007 -19.81162341 3.4171695 -16.2265625 0.1484375 C-10.94246299 -1.80438188 -5.30080892 -2.06044732 0 0 Z " fill="#F7FAFA" transform="translate(256.3515625,638.9140625)"/>
<path d="M0 0 C4.81778395 3.58532759 8.24115999 7.50049592 9.3125 13.5 C8.39989605 18.6105821 7.12896037 23.03250259 2.95703125 26.39453125 C-1.93003805 29.15509135 -6.78334682 29.98450749 -12.3125 29 C-17.85541527 26.95959615 -21.68264608 23.25970784 -24.3125 18 C-24.87600726 13.38108804 -24.7547879 9.90158688 -22.6875 5.6875 C-16.17739444 -1.6791984 -9.27672778 -2.80052159 0 0 Z " fill="#F7F9FA" transform="translate(257.3125,312)"/>
<path d="M0 0 C5.67458978 1.92721917 9.32050871 5.64101742 12 11 C12.50921186 17.11054235 12.08852244 20.13797331 8 25 C4.35057022 28.29338785 1.81934543 29.81806546 -3.125 30.3125 C-9.26605243 29.81725384 -14.17190919 27.87379308 -18.5 23.4375 C-21.09004404 19.22867843 -21.41381058 15.88296484 -21 11 C-16.06925128 1.68636354 -9.98541798 -0.83083601 0 0 Z " fill="#F7FAFA" transform="translate(776,311)"/>
<path d="M0 0 C5.31187165 1.77062388 9.30912513 5.0866278 12 10 C12.96761987 14.27537005 12.86145483 18.05536567 11.07421875 22.08984375 C8.45414461 26.1266355 5.63747281 28.48390312 1 30 C-4.69510055 30.72725205 -9.15089913 30.30620514 -14 27 C-17.77091539 23.25974245 -19.80527875 20.0640453 -20.3125 14.6875 C-19.8426577 9.14336081 -17.47427976 6.29877026 -13.375 2.6875 C-8.91890885 -0.47867003 -5.3577468 -0.48047476 0 0 Z " fill="#F6F9F9" transform="translate(252,555)"/>
<path d="M0 0 C4.09779682 2.8229267 8.09457512 5.914044 9.29296875 10.9609375 C9.54230602 17.15874959 7.31785079 21.20055678 3.375 25.75 C-0.04321688 28.66799002 -0.04321688 28.66799002 -3.1875 28.9375 C-4.425 29.06125 -5.6625 29.185 -6.9375 29.3125 C-11.97093645 29.23737408 -15.39480098 27.10927042 -19.1875 23.9375 C-22.28332083 20.53209709 -23.44487739 17.95634606 -23.6875 13.4375 C-23.45326869 8.94177002 -22.25999281 6.32512028 -19.1875 2.9375 C-12.98114531 -1.68684271 -7.37020424 -2.45673475 0 0 Z " fill="#F7FAFA" transform="translate(780.1875,556.0625)"/>
<path d="M0 0 C4.75629251 2.42477657 8.1551513 5.48171088 11 10 C12.03331845 15.04159405 11.75260084 19.51835851 9 23.9375 C5.97843674 27.53784157 2.59796861 29.19259331 -2 30 C-7.61773298 30.24241624 -11.71719141 28.61659392 -16 25 C-19.16052271 21.63933865 -20.83516742 19.04393969 -21.5625 14.4375 C-20.65622028 8.89912392 -18.36974349 6.0342961 -13.9375 2.6875 C-9.35516604 0.05509539 -5.23033963 -0.70599641 0 0 Z " fill="#60FAEF" transform="translate(777,392)"/>
<path d="M0 0 C4.65471356 2.31240588 7.33078392 5.45387954 9.07421875 10.34375 C9.93171603 16.23904381 8.27540716 20.48715252 5.07421875 25.34375 C1.55889512 28.74921977 -1.47920233 29.20728029 -6.23828125 29.65625 C-11.55607488 29.20558952 -14.971434 27.47620279 -18.51171875 23.61328125 C-21.10336457 20.02650071 -22.30651712 17.17908439 -22.05078125 12.71875 C-21.17862078 7.99115119 -19.42582703 5.61045939 -15.92578125 2.34375 C-10.90840366 -1.00116839 -5.73048258 -1.95278108 0 0 Z " fill="#5CFBEE" transform="translate(690.92578125,639.65625)"/>
<path d="M0 0 C3.75454339 2.3708465 6.32246837 5.33243674 8.3125 9.3125 C8.91161836 15.30368363 7.56935622 19.38831124 4.3125 24.3125 C0.20301064 28.1729294 -3.96338673 28.66443654 -9.40625 28.59375 C-14.03295947 28.02333376 -16.74272848 25.20620279 -20 22.125 C-22.35867839 18.19386935 -23.24375756 14.89606228 -22.6875 10.3125 C-20.6322543 5.57422445 -17.96966299 2.2127421 -13.75 -0.75 C-8.68534613 -2.30040425 -4.72470951 -2.48350115 0 0 Z " fill="#5EFBEA" transform="translate(604.6875,641.6875)"/>
<path d="M0 0 C3.72912975 2.19800896 6.63626288 4.23855677 8.890625 8.01171875 C9.76203984 13.20880545 9.48528814 17.73090584 7.265625 22.51171875 C3.21238364 26.7782886 -0.30196767 28.17890399 -6.109375 28.44921875 C-10.84890627 28.27842483 -13.55506068 27.31215348 -17.109375 24.01171875 C-19.87626237 20.59634216 -21.35623737 17.36225144 -21.609375 12.94921875 C-21.02817723 8.37228635 -20.20737738 6.41952137 -17.109375 3.01171875 C-11.87340053 -0.64551287 -6.15765385 -2.88497486 0 0 Z " fill="#64FAEF" transform="translate(254.109375,392.98828125)"/>
<path d="M0 0 C4.4874687 2.58319231 7.3231496 4.95775194 8.8046875 10.09375 C9.04103651 16.06693416 7.82607938 20.52892678 3.8046875 25.09375 C-0.96006133 28.41799337 -5.55949143 28.94795981 -11.1953125 28.09375 C-15.76419975 26.66933221 -18.34167718 24.40047251 -20.6328125 20.21875 C-22.14280952 16.68888684 -22.86640863 13.95255276 -22.1953125 10.09375 C-17.64046146 1.65884067 -9.63360829 -3.97686321 0 0 Z " fill="#68FEF0" transform="translate(430.1953125,311.90625)"/>
<path d="M0 0 C4.11232837 2.3607811 6.47223863 4.57630358 8.375 8.9375 C9.30905207 13.57498659 8.86801495 17.57647011 6.75 21.8125 C4.04768877 25.36817267 2.62351624 26.60000415 -1.625 27.9375 C-6.63201992 28.58988045 -10.40920259 28.52288394 -15 26.3125 C-19.2731748 22.44629423 -21.82985117 19.29128517 -22.125 13.4375 C-21.89076869 8.94177002 -20.69749281 6.32512028 -17.625 2.9375 C-11.94722707 -1.57379978 -6.99401959 -2.04997126 0 0 Z " fill="#66FAEE" transform="translate(343.625,312.0625)"/>
<path d="M0 0 C3 1.6875 3 1.6875 5 4 C5.8971875 5.0209375 5.8971875 5.0209375 6.8125 6.0625 C8.67566987 10.67139389 8.65442678 15.10258643 8 20 C6.04568129 23.90863741 3.92240591 26.98579156 0 29 C-3.95096655 30.15008333 -7.35989993 30.6412848 -11.2578125 29.1171875 C-15.24846195 26.77581015 -18.41274954 24.46414192 -20 20 C-20.91819388 13.17747081 -20.15835703 8.50701336 -16 3 C-11.6007796 -1.13260098 -5.69119925 -0.77139749 0 0 Z " fill="#62FBEC" transform="translate(516,640)"/>
<path d="M0 0 C3.49788017 2.26101714 5.51138023 4.5566261 7.3125 8.375 C8.13247898 13.00745854 7.81322995 17.02533502 5.6875 21.25 C2.61884533 25.28770351 0.19522471 26.96096413 -4.86328125 27.6875 C-11.65677427 28.05286433 -14.99655496 25.71187333 -20.0625 21.3125 C-22.58943123 16.74458585 -22.65578275 12.46394467 -21.6875 7.375 C-19.62887569 3.52448343 -16.98112667 1.13790804 -13.25 -1.0625 C-8.40716114 -2.12556219 -4.45917341 -2.29165229 0 0 Z " fill="#71FCF1" transform="translate(516.6875,312.625)"/>
<path d="M0 0 C3.74118372 2.28396589 7.01916207 5.03832415 9 9 C9.54644038 13.98066973 9.54204675 17.8958307 7.3125 22.4375 C3.69003696 26.45158067 1.03571527 28.15272551 -4.375 28.4375 C-9.3105965 28.24861694 -12.04082003 26.94997723 -16 24 C-19.07249281 20.61237972 -20.26576869 17.99572998 -20.5 13.5 C-20.23153454 8.00108671 -17.96875409 4.78977644 -13.9375 1.125 C-9.25538535 -0.66815029 -4.92481944 -0.98908507 0 0 Z " fill="#F8FBFB" transform="translate(515,474)"/>
<path d="M0 0 C106.59 0 213.18 0 323 0 C319.59900697 3.40099303 319.23151386 3.37521978 314.70694065 3.37752342 C313.6026813 3.38534666 312.49842195 3.39316991 311.36070019 3.40123022 C310.14262753 3.39453805 308.92455487 3.38784589 307.66957092 3.38095093 C305.73435559 3.38797089 305.73435559 3.38797089 303.76004499 3.39513266 C300.17156909 3.40769502 296.5833315 3.40144868 292.99485457 3.39217401 C289.1277023 3.3854051 285.26059191 3.39585403 281.39344788 3.40411377 C273.8145012 3.41747682 266.23564349 3.41456184 258.65669329 3.40587585 C252.49832414 3.3991093 246.33997999 3.39817811 240.1816082 3.4014473 C239.30615541 3.401907 238.43070262 3.40236669 237.52872096 3.40284032 C235.75041648 3.40379947 233.972112 3.40477211 232.19380753 3.4057581 C215.50526014 3.41431965 198.81676212 3.40446613 182.12822282 3.388357 C167.8010333 3.37495546 153.47391671 3.37727907 139.14672852 3.39111328 C122.52072572 3.40715963 105.89476626 3.41349314 89.26875681 3.40427649 C87.49657373 3.40332082 85.72439065 3.4023777 83.95220757 3.4014473 C83.08019653 3.40098447 82.2081855 3.40052164 81.30974989 3.40004479 C75.15753472 3.39745189 69.00534698 3.40183241 62.85313606 3.40888596 C55.3573263 3.41729077 47.86161082 3.41504243 40.36581189 3.39904372 C36.53951424 3.39114686 32.7133739 3.38809332 28.88707733 3.39799118 C24.7437182 3.40854727 20.60075796 3.39596268 16.45741272 3.38095093 C14.63364982 3.39098918 14.63364982 3.39098918 12.77304322 3.40123022 C11.66617612 3.39340697 10.55930902 3.38558373 9.41890049 3.37752342 C8.46211259 3.37703637 7.5053247 3.37654931 6.51954323 3.37604749 C4 3 4 3 0 0 Z " fill="#062A28" transform="translate(313,422)"/>
<path d="M0 0 C34.05650591 -0.02288106 68.1130099 -0.04050571 102.16952179 -0.05106533 C106.18877951 -0.05231606 110.20803722 -0.05361038 114.22729492 -0.05493164 C115.02746813 -0.05519395 115.82764134 -0.05545626 116.65206221 -0.05572652 C129.61407228 -0.06007968 142.57607792 -0.06796529 155.53808536 -0.0771528 C168.83496515 -0.08649916 182.13184261 -0.0920577 195.42872554 -0.09408849 C203.63582109 -0.09546167 211.84290412 -0.09980121 220.04999582 -0.10791647 C225.67533099 -0.11319604 231.30065969 -0.11480152 236.92599716 -0.11350138 C240.17312865 -0.1128599 243.42023358 -0.11439804 246.66736221 -0.11920547 C250.18639611 -0.12416122 253.70537593 -0.12299125 257.22441101 -0.12025452 C258.25262095 -0.12316736 259.28083088 -0.1260802 260.3401987 -0.12908131 C261.28370395 -0.12709026 262.22720921 -0.12509921 263.19930553 -0.12304783 C264.01152732 -0.12342755 264.82374911 -0.12380727 265.66058367 -0.1241985 C268.18468743 0.00980497 270.53610176 0.44862524 273 1 C269.43246501 3.26130281 266.95302103 3.05974991 262.81370544 2.63783264 C256.05511831 2.05600147 249.33586162 1.87634756 242.55335999 1.84178162 C240.9663402 1.83367437 240.9663402 1.83367437 239.3472594 1.82540333 C235.89174667 1.81162911 232.43624245 1.80312026 228.98071289 1.79467773 C226.47606755 1.78508275 223.97142377 1.77507176 221.46678162 1.76467896 C216.10262137 1.74334703 210.73846329 1.72486984 205.37428474 1.70907402 C197.61885981 1.68623166 189.86346084 1.65810993 182.10805815 1.62875474 C169.52135044 1.58125334 156.93463202 1.53794267 144.34790039 1.49731445 C132.13076954 1.45787017 119.91364815 1.41642299 107.6965332 1.37231445 C106.94177718 1.36959018 106.18702115 1.36686591 105.40939374 1.36405908 C101.62249903 1.35037814 97.83560448 1.33665815 94.04870999 1.32291877 C62.69915961 1.20922862 31.34958929 1.10243005 0 1 C0 0.67 0 0.34 0 0 Z " fill="#021C1F" transform="translate(372,391)"/>
<path d="M0 0 C0.495 0.99 0.495 0.99 1 2 C1.66 2.33 2.32 2.66 3 3 C-0.72559634 6.80001668 -4.46113945 10.58987008 -8.20605469 14.37084961 C-9.47736119 15.65719828 -10.74595657 16.94623247 -12.01171875 18.23803711 C-13.8365988 20.09950083 -15.67116411 21.9509368 -17.5078125 23.80078125 C-18.34724899 24.66344353 -18.34724899 24.66344353 -19.2036438 25.54353333 C-22.53167192 28.87295767 -25.57087968 31.18787024 -30 33 C-30.66 33 -31.32 33 -32 33 C-32.33 32.01 -32.66 31.02 -33 30 C-31.37750059 29.16180842 -29.75191503 28.3295884 -28.125 27.5 C-27.22007812 27.0359375 -26.31515625 26.571875 -25.3828125 26.09375 C-23 25 -23 25 -21 25 C-21.33 24.01 -21.66 23.02 -22 22 C-17.25 18 -17.25 18 -15 18 C-14.9071875 17.13375 -14.9071875 17.13375 -14.8125 16.25 C-13.66958051 13.08499218 -11.65236603 12.07576472 -9 10 C-7.12765607 7.97867386 -5.33624032 5.90289882 -3.55078125 3.8046875 C-2 2 -2 2 0 0 Z " fill="#5CF4F5" transform="translate(637,486)"/>
<path d="M0 0 C0.33 0 0.66 0 1 0 C1.7578125 2.67578125 1.7578125 2.67578125 2 6 C0.3046875 8.66796875 0.3046875 8.66796875 -2.125 11.1875 C-2.91132812 12.02667969 -3.69765625 12.86585938 -4.5078125 13.73046875 C-6.88891044 15.89883537 -9.23201925 17.38301461 -12 19 C-12.99 20.2375 -12.99 20.2375 -14 21.5 C-16 24 -16 24 -18.4375 25.4375 C-20.84254111 26.90398848 -21.91986356 27.96925693 -23.625 30.125 C-26 33 -26 33 -29 34 C-29.45375 34.78375 -29.9075 35.5675 -30.375 36.375 C-32.92778304 40.49872645 -36.78537236 41.89716031 -41 44 C-34.39674479 36.0065858 -27.11546877 28.75287482 -19.27734375 21.97265625 C-18.52582031 21.32167969 -17.77429688 20.67070312 -17 20 C-16.23453857 19.33846924 -16.23453857 19.33846924 -15.45361328 18.66357422 C-6.00446732 10.64569614 -6.00446732 10.64569614 0 0 Z " fill="#082E42" transform="translate(717,410)"/>
<path d="M0 0 C2.13446448 1.18731701 4.12843289 2.41819682 6.08984375 3.87109375 C6.08984375 4.53109375 6.08984375 5.19109375 6.08984375 5.87109375 C7.01796875 6.24234375 7.01796875 6.24234375 7.96484375 6.62109375 C10.49343002 8.10849744 10.80823379 9.30787384 12.08984375 11.87109375 C14.12343855 13.13913941 14.12343855 13.13913941 16.08984375 13.87109375 C16.08984375 14.53109375 16.08984375 15.19109375 16.08984375 15.87109375 C16.74984375 16.20109375 17.40984375 16.53109375 18.08984375 16.87109375 C15.08984375 16.87109375 15.08984375 16.87109375 12.453125 14.38671875 C11.43261958 13.30153105 10.41588212 12.21279134 9.40234375 11.12109375 C3.46888975 5.00416759 -1.14634995 0.84890883 -9.97265625 0.37109375 C-15.0058759 0.59565278 -17.89480067 1.83909055 -21.91015625 4.87109375 C-25.51621623 8.82612727 -25.17167189 12.76927414 -25.015625 17.859375 C-24.96341797 18.85517578 -24.96341797 18.85517578 -24.91015625 19.87109375 C-25.57015625 20.20109375 -26.23015625 20.53109375 -26.91015625 20.87109375 C-27.12671875 19.04578125 -27.12671875 19.04578125 -27.34765625 17.18359375 C-27.73796578 14.04438998 -28.23367481 10.96358035 -28.91015625 7.87109375 C-27.98203125 7.74734375 -27.98203125 7.74734375 -27.03515625 7.62109375 C-24.75711947 7.09767934 -24.75711947 7.09767934 -24.03515625 5.05859375 C-19.65345362 -3.46138358 -7.89853616 -3.06399591 0 0 Z " fill="#06252B" transform="translate(608.91015625,296.12890625)"/>
<path d="M0 0 C3 1.6875 3 1.6875 5 4 C5.8971875 5.0209375 5.8971875 5.0209375 6.8125 6.0625 C8.67566987 10.67139389 8.65442678 15.10258643 8 20 C6.00936672 23.98126656 3.83177886 26.70093269 0 29 C-0.66 29 -1.32 29 -2 29 C-2 28.34 -2 27.68 -2 27 C-1.21625 26.79375 -0.4325 26.5875 0.375 26.375 C3.22483334 25.21249257 3.22483334 25.21249257 4.3125 22.3125 C5.55926718 16.30534905 5.20676069 11.7116159 3 6 C2.67 5.01 2.34 4.02 2 3 C-1.68914571 1.77028476 -5.15859916 1.52469482 -9 2 C-11.2072358 3.48800372 -11.2072358 3.48800372 -13 5 C-15.25 4.6875 -15.25 4.6875 -17 4 C-11.7411321 -0.54821008 -6.82617923 -1.03174312 0 0 Z " fill="#73E9EA" transform="translate(516,640)"/>
<path d="M0 0 C4.86045979 0.45213579 7.53141261 1.53141261 11 5 C13.27759602 9.09967284 13.6220165 13.38860132 14 18 C13.67 18.66 13.34 19.32 13 20 C12.34 20 11.68 20 11 20 C10.67 21.98 10.34 23.96 10 26 C9.34 26 8.68 26 8 26 C7.79375 26.61875 7.5875 27.2375 7.375 27.875 C5.45224112 30.84653645 3.33405473 31.13024659 0 32 C-0.33 31.01 -0.66 30.02 -1 29 C0.0725 28.67 1.145 28.34 2.25 28 C6.23901511 26.28464259 7.67953491 24.04483508 9.33984375 20.11328125 C10.82029357 15.37408982 10.56713656 11.64348378 8.375 7.25 C6.24422998 3.83923504 3.76039664 2.45288052 0 1 C0 0.67 0 0.34 0 0 Z " fill="#072328" transform="translate(689,639)"/>
<path d="M0 0 C1 2 1 2 0.8046875 3.89453125 C-0.23508412 6.61509873 -1.65911265 7.81657679 -3.875 9.6875 C-4.57367187 10.28949219 -5.27234375 10.89148438 -5.9921875 11.51171875 C-8 13 -8 13 -11 14 C-11.020625 14.7425 -11.04125 15.485 -11.0625 16.25 C-12.12026271 19.35277063 -12.66995294 19.74627693 -15.375 21.375 C-19 23 -19 23 -22 22 C-14.74 14.74 -7.48 7.48 0 0 Z " fill="#082735" transform="translate(639,489)"/>
<path d="M0 0 C0 0.66 0 1.32 0 2 C0.66 2 1.32 2 2 2 C5.79180179 6.59612338 6.80802599 10.04880566 7 16 C6.0078125 18.2421875 6.0078125 18.2421875 5 20 C4.97421875 19.41992188 4.9484375 18.83984375 4.921875 18.2421875 C4.52589538 12.78846817 3.73870272 9.23063728 0 5 C-3.34669599 2.33426945 -6.19152416 1.11759649 -10.4375 0.5 C-14.89325128 1.1253686 -18.13511373 2.78768579 -22 5 C-22.99 5.495 -22.99 5.495 -24 6 C-22.88601599 2.65804797 -22.57482952 2.38373572 -19.625 0.8125 C-13.45537708 -2.10526391 -6.48203566 -1.86282801 0 0 Z " fill="#051E26" transform="translate(259,392)"/>
<path d="M0 0 C7.8837007 -0.0253547 15.76739088 -0.04286889 23.65112305 -0.05493164 C26.33310101 -0.05939552 29.01505529 -0.06635359 31.69702148 -0.07543945 C35.55192746 -0.08756853 39.40679718 -0.09324287 43.26171875 -0.09765625 C45.06040657 -0.10539818 45.06040657 -0.10539818 46.89543152 -0.11329651 C48.01621597 -0.11337204 49.13700043 -0.11344757 50.29174805 -0.11352539 C51.27547897 -0.115746 52.2592099 -0.11796661 53.27275085 -0.12025452 C55.9487352 -0.00226045 58.39334338 0.40051667 61 1 C57.39794057 3.29721217 54.80571385 3.06460785 50.62109375 2.66015625 C44.19587689 2.11322995 37.79435515 1.82907628 31.34765625 1.68359375 C30.42842377 1.66237457 29.50919128 1.6411554 28.56210327 1.61929321 C25.72895159 1.5561278 22.89573656 1.49672216 20.0625 1.4375 C18.10741513 1.39418346 16.15233692 1.35056564 14.19726562 1.30664062 C9.46491307 1.20096169 4.73248985 1.09933214 0 1 C0 0.67 0 0.34 0 0 Z " fill="#011F22" transform="translate(584,391)"/>
<path d="M0 0 C0 3.67819168 -0.76843318 4.22382655 -3.1875 6.875 C-3.826875 7.57882812 -4.46625 8.28265625 -5.125 9.0078125 C-7.36813748 11.39114607 -9.65419398 13.71759414 -12 16 C-12.721875 16.763125 -13.44375 17.52625 -14.1875 18.3125 C-16 20 -16 20 -18 20 C-18.226875 20.598125 -18.45375 21.19625 -18.6875 21.8125 C-20.3611297 24.60188284 -22.08817726 25.6168842 -25 27 C-25.66 26.67 -26.32 26.34 -27 26 C-23.17922562 22.08777091 -19.34998541 18.23810867 -15.1875 14.6875 C-9.83432003 10.09295432 -4.9436998 5.02548895 0 0 Z " fill="#70F0EC" transform="translate(641,442)"/>
<path d="M0 0 C1.65 0 3.3 0 5 0 C5.33 0.99 5.66 1.98 6 3 C6.66 3 7.32 3 8 3 C9.78265847 8.87228673 10.24858665 12.96516454 9 19 C8.34 19.66 7.68 20.32 7 21 C6.94392578 19.91332031 6.94392578 19.91332031 6.88671875 18.8046875 C6.50977518 13.26139964 6.16390059 8.74585089 3 4 C2.01 3.34 1.02 2.68 0 2 C0 1.34 0 0.68 0 0 Z " fill="#081822" transform="translate(432,312)"/>
<path d="M0 0 C0.66 0 1.32 0 2 0 C0.64015947 3.06351033 -0.87611371 5.08827402 -3.30078125 7.390625 C-3.94853516 8.01839844 -4.59628906 8.64617187 -5.26367188 9.29296875 C-6.6156272 10.58435029 -7.96975193 11.87346498 -9.32617188 13.16015625 C-13.27258584 16.99336942 -16.31533001 20.69602579 -18.98120117 25.52246094 C-19.31740479 26.01004883 -19.6536084 26.49763672 -20 27 C-20.66 27 -21.32 27 -22 27 C-20.66749209 23.4124787 -19.169283 20.1635377 -17 17 C-16.34 17 -15.68 17 -15 17 C-15 16.34 -15 15.68 -15 15 C-14.34 15 -13.68 15 -13 15 C-12.34 13.68 -11.68 12.36 -11 11 C-10.34 11 -9.68 11 -9 11 C-9 10.34 -9 9.68 -9 9 C-7.34997172 7.64613064 -5.6825613 6.31321858 -4 5 C-3.67 4.34 -3.34 3.68 -3 3 C-2.34 3 -1.68 3 -1 3 C-0.67 2.01 -0.34 1.02 0 0 Z " fill="#032021" transform="translate(605,473)"/>
<path d="M0 0 C4.39809573 1.82340979 7.31695941 3.99678414 10 7.9375 C11.06628944 11.20301141 11.3874667 13.59029303 11 17 C10.34 17.66 9.68 18.32 9 19 C8.97421875 18.30132812 8.9484375 17.60265625 8.921875 16.8828125 C8.86515625 15.97273438 8.8084375 15.06265625 8.75 14.125 C8.70359375 13.22007812 8.6571875 12.31515625 8.609375 11.3828125 C8.40828125 10.59648437 8.2071875 9.81015625 8 9 C6.04784655 7.83638482 6.04784655 7.83638482 4 7 C3.67 6.01 3.34 5.02 3 4 C0.29816945 2.64908472 -2.11808206 2.66141942 -5.125 2.4375 C-6.76855469 2.31181641 -6.76855469 2.31181641 -8.4453125 2.18359375 C-9.28835938 2.12300781 -10.13140625 2.06242187 -11 2 C-7.26092498 -0.49271668 -4.32782501 -0.74697335 0 0 Z " fill="#76E6E5" transform="translate(428,311)"/>
<path d="M0 0 C0.99 0 1.98 0 3 0 C3.33 0.99 3.66 1.98 4 3 C4.66 3.37125 5.32 3.7425 6 4.125 C8.76872572 6.72068037 8.90592414 8.87685228 9.171875 12.58203125 C8.78145726 18.07449901 5.93414128 22.3145688 2 26 C1.34 25.67 0.68 25.34 0 25 C0.639375 24.071875 1.27875 23.14375 1.9375 22.1875 C4.90722124 17.59793081 5.37370604 14.41873751 5 9 C3.57378316 6.28873616 3.57378316 6.28873616 2 4 C2 3.01 2 2.02 2 1 C1.34 0.67 0.68 0.34 0 0 Z " fill="#061C24" transform="translate(607,642)"/>
<path d="M0 0 C6.20970773 -0.33266291 10.28264895 0.54970669 16 3 C16 4.32 16 5.64 16 7 C16.99 7.33 17.98 7.66 19 8 C20.24377393 10.48754786 20.13306235 12.22655301 20.125 15 C20.12886719 16.3303125 20.12886719 16.3303125 20.1328125 17.6875 C20 20 20 20 19 22 C18.34 22 17.68 22 17 22 C17.04640625 21.27554687 17.0928125 20.55109375 17.140625 19.8046875 C17.31434285 15.15153086 17.35827986 11.80254689 15.4375 7.5 C11.08590661 3.0368273 6.06043326 1.73907723 0 1 C0 0.67 0 0.34 0 0 Z " fill="#06262E" transform="translate(334,310)"/>
<path d="M0 0 C1.69867523 0.9751016 3.34835906 2.03449916 4.98828125 3.10546875 C4.98828125 4.09546875 4.98828125 5.08546875 4.98828125 6.10546875 C4.32828125 5.77546875 3.66828125 5.44546875 2.98828125 5.10546875 C2.98828125 4.44546875 2.98828125 3.78546875 2.98828125 3.10546875 C-1.71578925 1.53744525 -6.13756392 1.00725862 -11.01171875 2.10546875 C-13.99414888 4.7349183 -16.02084721 7.6808979 -18.01171875 11.10546875 C-18.67171875 10.77546875 -19.33171875 10.44546875 -20.01171875 10.10546875 C-18.57351062 5.07174031 -16.1092636 3.11590986 -12.01171875 0.10546875 C-7.88748843 -1.26927469 -4.09008845 -1.81869952 0 0 Z " fill="#7AECE3" transform="translate(515.01171875,311.89453125)"/>
<path d="M0 0 C0.66 0.33 1.32 0.66 2 1 C-2.75 6.875 -2.75 6.875 -5 8 C-5.07654536 12.51617599 -5.10228696 16.59085217 -4 21 C-3.01 21.33 -2.02 21.66 -1 22 C-1.66 22.66 -2.32 23.32 -3 24 C-6.15589779 19.99233741 -8.49045852 16.62512368 -8.125 11.375 C-7.29582154 6.72194028 -5.34733772 4.26569534 -2 1 C-1.34 0.67 -0.68 0.34 0 0 Z " fill="#72E4DB" transform="translate(677,641)"/>
<path d="M0 0 C3.00972449 0.89478296 4.69899102 1.64523942 6.75 4.0625 C8.40166493 7.9439126 9.15886447 11.77117903 9 16 C8.01171875 18.27734375 8.01171875 18.27734375 7 20 C6.34 20 5.68 20 5 20 C5.05800781 19.28714844 5.11601563 18.57429688 5.17578125 17.83984375 C5.51415145 10.65672784 4.64689988 7.46010736 0 2 C0 1.34 0 0.68 0 0 Z " fill="#092529" transform="translate(518,312)"/>
<path d="M0 0 C3 2 3 2 3.51171875 4.09375 C3.59873047 5.28484375 3.59873047 5.28484375 3.6875 6.5 C3.78611328 7.69109375 3.78611328 7.69109375 3.88671875 8.90625 C3.96046921 10.26936202 4 11.63489432 4 13 C3.34 13 2.68 13 2 13 C1.855625 13.928125 1.71125 14.85625 1.5625 15.8125 C1 19 1 19 0 22 C-1.65 22.33 -3.3 22.66 -5 23 C-4.175 21.989375 -3.35 20.97875 -2.5 19.9375 C1.37472075 13.90166739 0.40253794 6.86998091 0 0 Z " fill="#052026" transform="translate(523,645)"/>
<path d="M0 0 C0.33 0 0.66 0 1 0 C1.7578125 2.671875 1.7578125 2.671875 2 6 C0.3046875 8.703125 0.3046875 8.703125 -2.125 11.25 C-2.91132812 12.10078125 -3.69765625 12.9515625 -4.5078125 13.828125 C-6.9682152 15.97230039 -8.91613555 17.01228541 -12 18 C-10.1121364 13.6638133 -7.09118396 10.7158654 -3.875 7.31640625 C-1.95749672 4.94749074 -0.97220068 2.87103013 0 0 Z " fill="#0B2734" transform="translate(717,410)"/>
<path d="M0 0 C0.66 0 1.32 0 2 0 C2.09796875 0.59167969 2.1959375 1.18335938 2.296875 1.79296875 C3.246509 6.81129323 4.11085299 10.42618923 8 14 C11.93212372 16.00180844 15.63795856 17.33908463 20 18 C20 18.33 20 18.66 20 19 C13.46584038 19.71023474 8.29018376 17.93445566 3 14 C0.0654997 9.72125256 -0.38322836 5.10971142 0 0 Z " fill="#082626" transform="translate(231,404)"/>
<path d="M0 0 C-1.3584202 3.04332765 -2.88463024 5.12309151 -5.2578125 7.453125 C-5.88300781 8.071875 -6.50820313 8.690625 -7.15234375 9.328125 C-7.80332031 9.96234375 -8.45429688 10.5965625 -9.125 11.25 C-9.78371094 11.8996875 -10.44242187 12.549375 -11.12109375 13.21875 C-12.74296643 14.81711727 -14.3693281 16.41061897 -16 18 C-16.66 17.34 -17.32 16.68 -18 16 C-17.01 15.67 -16.02 15.34 -15 15 C-15 14.01 -15 13.02 -15 12 C-11.66666667 9 -11.66666667 9 -9 9 C-8.773125 8.443125 -8.54625 7.88625 -8.3125 7.3125 C-6.49644015 4.11277551 -3.9498923 0 0 0 Z " fill="#262E32" transform="translate(361,505)"/>
<path d="M0 0 C0 3.5090104 -0.97622453 4.65325693 -3.22265625 7.23828125 C-6.85198739 10.83570618 -10.94675234 13.89906878 -15 17 C-15 14 -15 14 -13.83837891 12.48193359 C-13.30647949 11.95937988 -12.77458008 11.43682617 -12.2265625 10.8984375 C-11.6490625 10.32609375 -11.0715625 9.75375 -10.4765625 9.1640625 C-9.86554688 8.57367187 -9.25453125 7.98328125 -8.625 7.375 C-7.72007812 6.4778125 -7.72007812 6.4778125 -6.796875 5.5625 C-2.30918779 1.15459389 -2.30918779 1.15459389 0 0 Z " fill="#0B0E13" transform="translate(369,545)"/>
<path d="M0 0 C0.33 0.99 0.66 1.98 1 3 C-2.15965221 8.0069888 -6.36538001 12.03443489 -12 14 C-12.66 13.67 -13.32 13.34 -14 13 C-13.113125 12.278125 -12.22625 11.55625 -11.3125 10.8125 C-8.37088913 8.3634702 -5.67143151 5.74363236 -3 3 C-2 2 -1 1 0 0 Z " fill="#092B3F" transform="translate(661,468)"/>
<path d="M0 0 C0.67095703 0.58007812 0.67095703 0.58007812 1.35546875 1.171875 C1.96003906 1.69265625 2.56460938 2.2134375 3.1875 2.75 C3.82171875 3.2965625 4.4559375 3.843125 5.109375 4.40625 C6.68220486 5.73210658 8.30440766 6.99912076 9.9375 8.25 C10.618125 8.8275 11.29875 9.405 12 10 C12 10.66 12 11.32 12 12 C14.97 12.495 14.97 12.495 18 13 C18.33 14.65 18.66 16.3 19 18 C13.61621151 16.51765671 10.46710227 12.87691437 6.6875 9 C6.04232422 8.35804688 5.39714844 7.71609375 4.73242188 7.0546875 C0 2.26717923 0 2.26717923 0 0 Z " fill="#061D27" transform="translate(634,320)"/>
<path d="M0 0 C3.73487777 0.4979837 5.81237635 0.87491756 9 3 C9 3.66 9 4.32 9 5 C14.3086849 4.41825155 14.3086849 4.41825155 19 2 C21.1875 2.375 21.1875 2.375 23 3 C17.76963624 6.30338764 13.02788188 6.90857863 7 6 C3.89193321 4.66797137 1.5501917 3.1003834 0 0 Z " fill="#7FEBE5" transform="translate(236,415)"/>
<path d="M0 0 C0.66 0.33 1.32 0.66 2 1 C1.67 1.99 1.34 2.98 1 4 C0.16569483 10.71019726 0.97513512 15.07616215 4.90625 20.6015625 C5.2671875 21.06304688 5.628125 21.52453125 6 22 C3.08482708 20.92598892 1.22189824 20.22189824 -1 18 C-2.79048191 11.7333133 -2.35334146 6.0304375 0 0 Z " fill="#072528" transform="translate(496,646)"/>
<path d="M0 0 C0.66 0.33 1.32 0.66 2 1 C1.175 1.70125 0.35 2.4025 -0.5 3.125 C-3.30423396 5.78627227 -3.30423396 5.78627227 -3.3125 9.3125 C-3.209375 10.199375 -3.10625 11.08625 -3 12 C-3.66 12 -4.32 12 -5 12 C-4.34 14.97 -3.68 17.94 -3 21 C-6.50272619 17.49727381 -6.74565317 16.00094704 -7.13671875 11.28515625 C-6.84864038 6.47013203 -3.43768519 3.09391667 0 0 Z " fill="#7AEDE4" transform="translate(415,313)"/>
<path d="M0 0 C-2.65427182 5.80296681 -6.5317058 10.92292617 -12.4375 13.5 C-13.283125 13.665 -14.12875 13.83 -15 14 C-3.28571429 0 -3.28571429 0 0 0 Z " fill="#2A2D30" transform="translate(404,510)"/>
<path d="M0 0 C0.66 0.66 1.32 1.32 2 2 C1.67424381 6.88634289 1.08188761 11.52394165 -1 16 C-3.5 17.9375 -3.5 17.9375 -6 19 C-6.66 18.67 -7.32 18.34 -8 18 C-7.21625 17.113125 -6.4325 16.22625 -5.625 15.3125 C-1.6681857 10.52855503 -0.72279538 6.14376076 0 0 Z " fill="#071F2A" transform="translate(649,401)"/>
<path d="M0 0 C-0.928125 0.556875 -1.85625 1.11375 -2.8125 1.6875 C-6.16307757 4.11831118 -7.53306807 5.16967773 -9 9 C-9.23398604 12.68138034 -9.17415011 16.31704771 -9 20 C-9.99 19.34 -10.98 18.68 -12 18 C-13.07003874 11.34198116 -11.04540532 7.60082243 -7.5078125 2.00390625 C-5.04707202 -1.2664561 -3.70644177 -1.11193253 0 0 Z " fill="#012826" transform="translate(766,394)"/>
<path d="M0 0 C2.34870608 1.45660098 3.3484302 2.7219727 5 5 C4.01 5 3.02 5 2 5 C2 4.34 2 3.68 2 3 C-1.68914571 1.77028476 -5.15859916 1.52469482 -9 2 C-11.2072358 3.48800372 -11.2072358 3.48800372 -13 5 C-15.25 4.6875 -15.25 4.6875 -17 4 C-11.81048782 -0.48822675 -6.75464953 -1.2421164 0 0 Z " fill="#68E5DB" transform="translate(516,640)"/>
<path d="M0 0 C13.96115723 -0.68849543 13.96115723 -0.68849543 17.8125 1.8125 C20 4 20 4 21 7 C17.07176899 7 15.93381106 5.48245551 13 3 C10.47524538 1.73762269 8.68799534 1.90143596 5.875 1.9375 C4.96492187 1.94652344 4.05484375 1.95554687 3.1171875 1.96484375 C2.06917969 1.98224609 2.06917969 1.98224609 1 2 C0.67 1.34 0.34 0.68 0 0 Z " fill="#062A30" transform="translate(766,391)"/>
<path d="M0 0 C-1.01978286 2.46447525 -1.62595815 3.77074855 -3.9375 5.1875 C-7.19178067 8.0473224 -7.86915207 11.9135268 -9 16 C-9.33 16 -9.66 16 -10 16 C-10.86967156 10.34713483 -8.59673164 7.30977969 -5.5078125 2.85546875 C-3.72403044 0.66040016 -2.84158039 0 0 0 Z " fill="#65E1D4" transform="translate(592,642)"/>
<path d="M0 0 C0 0.99 0 1.98 0 3 C-1.64805027 4.0303922 -3.31845518 5.02522578 -5 6 C-7.26780216 8.23674122 -7.26780216 8.23674122 -9.3125 10.6875 C-10.35857422 11.89986328 -10.35857422 11.89986328 -11.42578125 13.13671875 C-11.94527344 13.75160156 -12.46476563 14.36648438 -13 15 C-13.99 14.34 -14.98 13.68 -16 13 C-14.0884175 11.20263155 -12.17113816 9.41210526 -10.25 7.625 C-9.71117187 7.11710937 -9.17234375 6.60921875 -8.6171875 6.0859375 C-5.90902173 3.5759302 -3.44919841 1.38972557 0 0 Z " fill="#7DFAF7" transform="translate(678,408)"/>
<path d="M0 0 C0.99 0.33 1.98 0.66 3 1 C4.63547495 5.90642484 4.57522753 9.68177024 2.5 14.4375 C2.005 15.283125 1.51 16.12875 1 17 C0.01 17 -0.98 17 -2 17 C-1.34 16.67 -0.68 16.34 0 16 C1.78141946 10.65574163 1.06384343 5.45219759 0 0 Z " fill="#67EBE6" transform="translate(696,646)"/>
<path d="M0 0 C1.890625 0.26953125 1.890625 0.26953125 4 1 C6.70678361 5.23187437 7.37057967 10.0589377 7 15 C6.01 15.495 6.01 15.495 5 16 C4.87625 14.1746875 4.87625 14.1746875 4.75 12.3125 C4.25967408 8.17034368 2.77612735 6.13433733 0 3 C0 2.01 0 1.02 0 0 Z " fill="#0E141A" transform="translate(520,476)"/>
<path d="M0 0 C0.33 0 0.66 0 1 0 C1.31571333 5.26188885 0.89914347 8.55464669 -2 13 C-3.91062716 14.84742576 -5.87152678 16.39182024 -8 18 C-8.33 17.34 -8.66 16.68 -9 16 C-7.6875 14 -7.6875 14 -6 12 C-5.01 12 -4.02 12 -3 12 C-2.87625 11.319375 -2.7525 10.63875 -2.625 9.9375 C-1.90899123 6.5722588 -0.97054875 3.29986575 0 0 Z " fill="#7FF3F3" transform="translate(647,403)"/>
<path d="M0 0 C0.33 0 0.66 0 1 0 C1.125 5.75 1.125 5.75 0 8 C-0.66 8 -1.32 8 -2 8 C-2.20625 8.61875 -2.4125 9.2375 -2.625 9.875 C-4.54775888 12.84653645 -6.66594527 13.13024659 -10 14 C-10.33 13.01 -10.66 12.02 -11 11 C-9.9275 10.67 -8.855 10.34 -7.75 10 C-3.57348949 8.26331713 -2.36392372 5.67354671 -0.62890625 1.64453125 C-0.31759766 0.83048828 -0.31759766 0.83048828 0 0 Z " fill="#133338" transform="translate(699,657)"/>
<path d="M0 0 C2 1.8125 2 1.8125 4 4 C4 4.99 4 5.98 4 7 C5.98 7.66 7.96 8.32 10 9 C10 9.66 10 10.32 10 11 C10.66 11 11.32 11 12 11 C12 11.66 12 12.32 12 13 C6.82483834 11.89103679 4.42576746 9.72127801 1.1015625 5.8515625 C0 4 0 4 0 0 Z " fill="#7FEDE2" transform="translate(757,408)"/>
<path d="M0 0 C0.53367187 0.433125 1.06734375 0.86625 1.6171875 1.3125 C7.48023701 5.69457161 11.73151258 6.99172799 19 6 C20.33940298 5.69196013 21.67546778 5.36674691 23 5 C22.67 5.99 22.34 6.98 22 8 C19.79229195 8.08165496 17.58369575 8.13948488 15.375 8.1875 C13.53035156 8.23970703 13.53035156 8.23970703 11.6484375 8.29296875 C7.62864195 7.97018003 5.33472961 7.25412075 2 5 C0.625 2.3125 0.625 2.3125 0 0 Z " fill="#062C2C" transform="translate(323,333)"/>
<path d="M0 0 C0.66 0.33 1.32 0.66 2 1 C-2.95 5.95 -7.9 10.9 -13 16 C-13.66 15.67 -14.32 15.34 -15 15 C-14.04270084 13.87411986 -13.08412105 12.7493285 -12.125 11.625 C-11.59132813 10.99851562 -11.05765625 10.37203125 -10.5078125 9.7265625 C-8.30705297 7.20652179 -5.91708737 5.04048183 -3.375 2.875 C-2.74335938 2.33617187 -2.11171875 1.79734375 -1.4609375 1.2421875 C-0.97882813 0.83226562 -0.49671875 0.42234375 0 0 Z " fill="#0B1015" transform="translate(342,522)"/>
<path d="M0 0 C0 3 0 3 -2.25 5.375 C-3.1575 6.24125 -4.065 7.1075 -5 8 C-5.99 9.3303125 -5.99 9.3303125 -7 10.6875 C-9.19539877 13.22592982 -10.82770221 14.03068679 -14 15 C-9.59156563 9.70987876 -4.92440206 4.81191572 0 0 Z " fill="#67E1DC" transform="translate(603,478)"/>
<path d="M0 0 C-1.53643852 3.68069887 -3.78150945 5.98775204 -6.625 8.75 C-7.85089844 9.94882812 -7.85089844 9.94882812 -9.1015625 11.171875 C-9.72804688 11.77515625 -10.35453125 12.3784375 -11 13 C-11.66 12.34 -12.32 11.68 -13 11 C-12.01 10.67 -11.02 10.34 -10 10 C-10 9.34 -10 8.68 -10 8 C-9.34 8 -8.68 8 -8 8 C-8 7.01 -8 6.02 -8 5 C-2.65116279 0 -2.65116279 0 0 0 Z " fill="#292F36" transform="translate(394,472)"/>
<path d="M0 0 C-3.49492017 2.12191582 -3.49492017 2.12191582 -5.8125 1.5625 C-6.534375 1.376875 -7.25625 1.19125 -8 1 C-9.74886981 0.93375493 -11.50002748 0.91447405 -13.25 0.9375 C-14.58804687 0.95103516 -14.58804687 0.95103516 -15.953125 0.96484375 C-16.62859375 0.97644531 -17.3040625 0.98804688 -18 1 C-18 0.34 -18 -0.32 -18 -1 C-11.96066243 -2.71183038 -5.67573523 -2.92941173 0 0 Z " fill="#0C282C" transform="translate(436,311)"/>
<path d="M0 0 C-1.546875 0.8353125 -1.546875 0.8353125 -3.125 1.6875 C-6.7924555 3.77145129 -9.83430945 6.22036927 -13 9 C-13.33 8.34 -13.66 7.68 -14 7 C-10.64929832 2.23169376 -6.20192379 -2.62389083 0 0 Z " fill="#71E9E1" transform="translate(598,297)"/>
<path d="M0 0 C0.33 0 0.66 0 1 0 C1.08636719 0.58007812 1.17273438 1.16015625 1.26171875 1.7578125 C2.51952153 8.75073436 4.72680214 12.34605579 10.3125 16.875 C10.869375 17.24625 11.42625 17.6175 12 18 C10.02 17.67 8.04 17.34 6 17 C5.67 16.01 5.34 15.02 5 14 C4.34 14 3.68 14 3 14 C-0.00559652 8.99067246 -0.29341888 5.67276511 0 0 Z " fill="#042426" transform="translate(581,652)"/>
<path d="M0 0 C0.99 0.33 1.98 0.66 3 1 C2.175 1.804375 1.35 2.60875 0.5 3.4375 C-2.34855384 6.83478376 -2.500116 9.52552234 -2.37109375 13.8515625 C-1.96484411 16.2035341 -1.16648695 17.92936855 0 20 C-1.32 19.67 -2.64 19.34 -4 19 C-4.05418326 16.91695462 -4.09287551 14.83350232 -4.125 12.75 C-4.14820313 11.58984375 -4.17140625 10.4296875 -4.1953125 9.234375 C-4.0103949 6.17213954 -3.60823023 4.55797249 -2 2 C-1.34 2 -0.68 2 0 2 C0 1.34 0 0.68 0 0 Z " fill="#063235" transform="translate(305,395)"/>
<path d="M0 0 C1.32 0.33 2.64 0.66 4 1 C4 1.66 4 2.32 4 3 C5.32 3 6.64 3 8 3 C10.25 5 10.25 5 12 7 C11.67 7.99 11.34 8.98 11 10 C6.17324411 7.58662205 3.30015998 4.13937592 0 0 Z " fill="#06222D" transform="translate(683,369)"/>
<path d="M0 0 C0 4.03066816 -1.67283027 5.78303008 -4 9 C-4.66 9.66 -5.32 10.32 -6 11 C-7.32 10.67 -8.64 10.34 -10 10 C-6.7 6.7 -3.4 3.4 0 0 Z " fill="#042A3C" transform="translate(675,454)"/>
<path d="M0 0 C0 2 0 2 -1.4609375 3.5078125 C-2.09257813 4.04148437 -2.72421875 4.57515625 -3.375 5.125 C-4.00148438 5.66382813 -4.62796875 6.20265625 -5.2734375 6.7578125 C-7 8 -7 8 -9 8 C-9 8.66 -9 9.32 -9 10 C-9.66 10 -10.32 10 -11 10 C-9.64717831 5.57258356 -7.76701112 3.63690779 -4 1 C-2 0 -2 0 0 0 Z " fill="#6AEBDF" transform="translate(768,393)"/>
<path d="M0 0 C1.56814453 0.02126953 1.56814453 0.02126953 3.16796875 0.04296875 C4.20566406 0.04941406 5.24335937 0.05585938 6.3125 0.0625 C9.09653528 0.21617589 11.64345512 0.60384823 14.35546875 1.23046875 C10.56879186 3.7874516 6.94323535 3.26546559 2.60546875 2.85546875 C1.90808594 2.79875 1.21070313 2.74203125 0.4921875 2.68359375 C-1.22092437 2.54279003 -2.93287736 2.38800903 -4.64453125 2.23046875 C-2.64453125 0.23046875 -2.64453125 0.23046875 0 0 Z " fill="#082E30" transform="translate(630.64453125,390.76953125)"/>
<path d="M0 0 C2.31 0.66 4.62 1.32 7 2 C7 2.66 7 3.32 7 4 C7.639375 4.2475 8.27875 4.495 8.9375 4.75 C11 6 11 6 11.75 8.125 C11.87375 9.053125 11.87375 9.053125 12 10 C11.34 10 10.68 10 10 10 C9.4225 9.2575 8.845 8.515 8.25 7.75 C5.80152498 4.75741942 3.24213907 3.06317941 0 1 C0 0.67 0 0.34 0 0 Z " fill="#141C23" transform="translate(343,724)"/>
<path d="M0 0 C5.93353028 5.78138848 5.93353028 5.78138848 6.1875 10.4375 C6 14 6 14 4 17 C3.92652344 15.82630859 3.92652344 15.82630859 3.8515625 14.62890625 C3.77679687 13.61699219 3.70203125 12.60507812 3.625 11.5625 C3.55539062 10.55316406 3.48578125 9.54382813 3.4140625 8.50390625 C3.27742187 7.67761719 3.14078125 6.85132813 3 6 C2.34 5.67 1.68 5.34 1 5 C0.375 2.4375 0.375 2.4375 0 0 Z " fill="#66DAD7" transform="translate(607,644)"/>
<path d="M0 0 C0.66 0 1.32 0 2 0 C2 0.66 2 1.32 2 2 C2.99 2 3.98 2 5 2 C5.2475 2.639375 5.495 3.27875 5.75 3.9375 C6.81562433 6.18741541 6.81562433 6.18741541 9.125 6.75 C9.74375 6.8325 10.3625 6.915 11 7 C11 7.66 11 8.32 11 9 C8.02230154 8.8615024 5.78173508 8.68881566 3.48828125 6.66796875 C0 2.55999284 0 2.55999284 0 0 Z " fill="#80F1E7" transform="translate(323,330)"/>
<path d="M0 0 C2.0625 0.4375 2.0625 0.4375 4 1 C3.67 1.66 3.34 2.32 3 3 C2.93003986 4.70702735 2.91559846 6.41668003 2.9375 8.125 C2.95103516 9.49011719 2.95103516 9.49011719 2.96484375 10.8828125 C2.97644531 11.58148438 2.98804688 12.28015625 3 13 C2.01 13.495 2.01 13.495 1 14 C0.855625 12.783125 0.71125 11.56625 0.5625 10.3125 C0.26118339 7.84956424 -0.10773279 5.49365588 -0.625 3.0625 C-0.74875 2.381875 -0.8725 1.70125 -1 1 C-0.67 0.67 -0.34 0.34 0 0 Z " fill="#0C2C32" transform="translate(581,303)"/>
<path d="M0 0 C4.91935902 4.11619836 9.52647956 8.40410362 14 13 C9.92788094 13 8.8585397 11.4464936 5.875 8.75 C4.98554687 7.96109375 4.09609375 7.1721875 3.1796875 6.359375 C1.0832655 4.09012968 0.34497744 3.00820326 0 0 Z " fill="#04202C" transform="translate(647,379)"/>
<path d="M0 0 C0 0.99 0 1.98 0 3 C-0.33 3.33 -0.66 3.66 -1 4 C-1.36760731 6.32817964 -1.70241581 8.6618385 -2 11 C-2.66 11 -3.32 11 -4 11 C-4 12.65 -4 14.3 -4 16 C-4.33 16 -4.66 16 -5 16 C-5.51257038 9.59287031 -5.13597047 6.01329753 -1 1 C-0.67 0.67 -0.34 0.34 0 0 Z " fill="#6FF3E8" transform="translate(589,493)"/>
<path d="M0 0 C-1.40844718 3.21524305 -3.10344786 5.32183868 -5.625 7.75 C-6.57246094 8.67039062 -6.57246094 8.67039062 -7.5390625 9.609375 C-8.02117188 10.06828125 -8.50328125 10.5271875 -9 11 C-9.33 10.34 -9.66 9.68 -10 9 C-8.09874579 4.98624111 -4.87458663 0 0 0 Z " fill="#092F32" transform="translate(648,434)"/>
<path d="M0 0 C2 1.4375 2 1.4375 4 4 C4.72919332 8.69736163 4.66195958 12.00706063 2 16 C2 12.37 2 8.74 2 5 C1.34 5 0.68 5 0 5 C0 3.35 0 1.7 0 0 Z " fill="#83F3F2" transform="translate(520,317)"/>
<path d="M0 0 C3 3 3 3 3.07421875 5.26171875 C2.94660156 6.06222656 2.81898438 6.86273438 2.6875 7.6875 C2.50767578 8.89986328 2.50767578 8.89986328 2.32421875 10.13671875 C2.21722656 10.75160156 2.11023438 11.36648437 2 12 C1.34 12 0.68 12 0 12 C0 8.04 0 4.08 0 0 Z " fill="#141C20" transform="translate(529,236)"/>
<path d="M0 0 C0.103125 0.639375 0.20625 1.27875 0.3125 1.9375 C0.539375 2.618125 0.76625 3.29875 1 4 C1.99 4.33 2.98 4.66 4 5 C3.67 6.32 3.34 7.64 3 9 C0.69 6.69 -1.62 4.38 -4 2 C-2.68 1.34 -1.36 0.68 0 0 Z " fill="#0E353E" transform="translate(671,353)"/>
<path d="M0 0 C4.52615993 3.67832017 8.39424999 7.41086363 12 12 C8.16488047 10.43754389 5.89634216 7.89634216 3 5 C0.83379456 3.70480005 0.83379456 3.70480005 -1 3 C-0.67 2.01 -0.34 1.02 0 0 Z " fill="#06242E" transform="translate(614,348)"/>
<path d="M0 0 C3.39675174 4.52900232 3.39675174 4.52900232 2.8125 8.6875 C2.71582031 9.47511719 2.61914062 10.26273438 2.51953125 11.07421875 C2.34808594 11.70972656 2.17664063 12.34523438 2 13 C1.01 13.495 1.01 13.495 0 14 C0 9.38 0 4.76 0 0 Z " fill="#131925" transform="translate(441,735)"/>
<path d="M0 0 C2.97069541 2.54631035 4.4775751 5.42230149 6 9 C5.67 9.66 5.34 10.32 5 11 C0.07692308 5.70769231 0.07692308 5.70769231 -0.3125 2.125 C-0.209375 1.42375 -0.10625 0.7225 0 0 Z " fill="#81F1E6" transform="translate(583,656)"/>
<path d="M0 0 C0.66 0.33 1.32 0.66 2 1 C-2.43076923 6.78461538 -2.43076923 6.78461538 -5.3125 7.875 C-5.869375 7.91625 -6.42625 7.9575 -7 8 C-5.08864614 4.46399535 -3.37357234 2.21027154 0 0 Z " fill="#6CECDF" transform="translate(677,641)"/>
<path d="M0 0 C-0.98562757 3.31529273 -1.65447419 4.74949379 -4.5 6.8125 C-7 8 -7 8 -9 8 C-8 5 -8 5 -5 3 C-4.2265625 2.195625 -4.2265625 2.195625 -3.4375 1.375 C-2 0 -2 0 0 0 Z " fill="#77F0F2" transform="translate(437,331)"/>
<path d="M0 0 C-1 2 -1 2 -2 3 C-3.66617115 3.04063832 -5.33388095 3.042721 -7 3 C-7 2.34 -7 1.68 -7 1 C-8.32 0.67 -9.64 0.34 -11 0 C-3.57142857 -1.28571429 -3.57142857 -1.28571429 0 0 Z " fill="#2B3038" transform="translate(780,761)"/>
<path d="M0 0 C1.33333333 2 2.66666667 4 4 6 C3.67 6.99 3.34 7.98 3 9 C0.69 6.69 -1.62 4.38 -4 2 C-2.68 1.34 -1.36 0.68 0 0 Z " fill="#041D2A" transform="translate(679,360)"/>
<path d="M0 0 C0.556875 0.28875 1.11375 0.5775 1.6875 0.875 C6.48167302 3.20730039 10.67178465 4.37315114 16 5 C16 5.33 16 5.66 16 6 C9.34454208 6.54330269 5.54165256 5.77304004 0 2 C0 1.34 0 0.68 0 0 Z " fill="#79DFD4" transform="translate(412,334)"/>
<path d="M0 0 C0.99 0.66 1.98 1.32 3 2 C2.38125 2.2475 1.7625 2.495 1.125 2.75 C-1.51392178 4.30230693 -2.01127112 5.10986942 -3 8 C-3.44442786 10.66656713 -3.73065528 13.30655282 -4 16 C-4.33 16 -4.66 16 -5 16 C-5.51257038 9.59287031 -5.13597047 6.01329753 -1 1 C-0.67 0.67 -0.34 0.34 0 0 Z " fill="#7DECE4" transform="translate(327,314)"/>
<path d="M0 0 C0.33 0 0.66 0 1 0 C1.12117187 0.62648438 1.24234375 1.25296875 1.3671875 1.8984375 C1.53476562 2.71570313 1.70234375 3.53296875 1.875 4.375 C2.03742187 5.18710937 2.19984375 5.99921875 2.3671875 6.8359375 C2.86658932 9.18673923 2.86658932 9.18673923 5 11 C4.625 13.125 4.625 13.125 4 15 C0.40621058 9.60931587 -0.45356243 6.46326465 0 0 Z " fill="#82E8E8" transform="translate(583,306)"/>
<path d="M0 0 C0.66 0 1.32 0 2 0 C5.24900602 4.97504047 6.49940808 7.88225104 6 14 C5.71382812 13.42507812 5.42765625 12.85015625 5.1328125 12.2578125 C4.40683342 10.8108611 3.6731345 9.36774192 2.9296875 7.9296875 C2.58164062 7.25164062 2.23359375 6.57359375 1.875 5.875 C1.52179687 5.19179687 1.16859375 4.50859375 0.8046875 3.8046875 C0 2 0 2 0 0 Z " fill="#13171E" transform="translate(698,230)"/>
<path d="M0 0 C0.99 0.33 1.98 0.66 3 1 C0.18929192 5.21606212 -3.5572744 6.79754241 -8 9 C-7.04270084 7.87411986 -6.08412105 6.7493285 -5.125 5.625 C-4.59132813 4.99851562 -4.05765625 4.37203125 -3.5078125 3.7265625 C-2.38567993 2.44163349 -1.20628025 1.20628025 0 0 Z " fill="#032336" transform="translate(684,445)"/>
<path d="M0 0 C0.99 0 1.98 0 3 0 C3 0.66 3 1.32 3 2 C3.99 1.34 4.98 0.68 6 0 C8.1875 0.375 8.1875 0.375 10 1 C10 1.66 10 2.32 10 3 C8.54207116 3.05399736 7.08357288 3.09279177 5.625 3.125 C4.81289063 3.14820313 4.00078125 3.17140625 3.1640625 3.1953125 C1 3 1 3 -1 1 C-0.67 0.67 -0.34 0.34 0 0 Z " fill="#7DFDFB" transform="translate(506,336)"/>
<path d="M0 0 C1.32 0.33 2.64 0.66 4 1 C4 1.66 4 2.32 4 3 C6.31 3.33 8.62 3.66 11 4 C11 4.33 11 4.66 11 5 C2.80743982 5.4726477 2.80743982 5.4726477 -0.5625 3.5 C-1.036875 3.005 -1.51125 2.51 -2 2 C-1.34 2 -0.68 2 0 2 C0 1.34 0 0.68 0 0 Z " fill="#68E8DB" transform="translate(591,665)"/>
<path d="M0 0 C0.33 0 0.66 0 1 0 C1.12117187 0.61488281 1.24234375 1.22976563 1.3671875 1.86328125 C1.53476563 2.67152344 1.70234375 3.47976563 1.875 4.3125 C2.03742188 5.11300781 2.19984375 5.91351562 2.3671875 6.73828125 C2.94478999 9.25301118 2.94478999 9.25301118 5 12 C3.125 11.875 3.125 11.875 1 11 C-0.91502155 6.9875739 -1.25190641 4.25648179 0 0 Z " fill="#252D33" transform="translate(232,651)"/>
<path d="M0 0 C-1.49097658 3.7952131 -3.75700849 5.61042731 -7 8 C-7 6.68 -7 5.36 -7 4 C-2.77777778 0 -2.77777778 0 0 0 Z " fill="#5BF7FB" transform="translate(647,480)"/>
<path d="M0 0 C0.66 0.99 1.32 1.98 2 3 C-0.97 5.475 -0.97 5.475 -4 8 C-4 7.34 -4 6.68 -4 6 C-4.66 5.67 -5.32 5.34 -6 5 C-4.625 3.5 -4.625 3.5 -3 2 C-2.34 2 -1.68 2 -1 2 C-0.67 1.34 -0.34 0.68 0 0 Z " fill="#54E8ED" transform="translate(656,469)"/>
<path d="M0 0 C0 3.96130371 -1.34877125 4.82914401 -4 7.6875 C-4.7425 8.49574219 -5.485 9.30398438 -6.25 10.13671875 C-6.8275 10.75160156 -7.405 11.36648438 -8 12 C-8.66 11.34 -9.32 10.68 -10 10 C-6.7 6.7 -3.4 3.4 0 0 Z " fill="#ECF3F7" transform="translate(407,460)"/>
<path d="M0 0 C3 1 3 1 4.75 3.8125 C5.98589446 6.96403086 6.28222189 7.96929372 5 11 C4.34 11 3.68 11 3 11 C2.51171875 9.01432292 2.0234375 7.02864583 1.53515625 5.04296875 C1.08989295 3.34316798 0.55566015 1.66698046 0 0 Z " fill="#051F25" transform="translate(786,399)"/>
<path d="M0 0 C0.66 0 1.32 0 2 0 C2 0.66 2 1.32 2 2 C2.66 2 3.32 2 4 2 C4.84098656 6.01804691 5.05404945 9.01803543 4 13 C3.67 13 3.34 13 3 13 C2.86722656 12.31292969 2.73445312 11.62585938 2.59765625 10.91796875 C2.42105469 10.01691406 2.24445312 9.11585938 2.0625 8.1875 C1.88847656 7.29417969 1.71445312 6.40085937 1.53515625 5.48046875 C1.02258847 2.88602829 1.02258847 2.88602829 0 0 Z " fill="#051C28" transform="translate(715,400)"/>
<path d="M0 0 C0.66 0 1.32 0 2 0 C5.01704885 3.1999003 6.49890042 5.61537866 7 10 C3.60582235 6.87378374 1.3937282 4.43458973 0 0 Z " fill="#0F1319" transform="translate(434,225)"/>
<path d="M0 0 C0.66 0.33 1.32 0.66 2 1 C1.4409112 4.24271506 0.5867822 5.93057424 -2 8 C-2.66 8 -3.32 8 -4 8 C-3.67 6.68 -3.34 5.36 -3 4 C-2.34 4 -1.68 4 -1 4 C-0.67 2.68 -0.34 1.36 0 0 Z " fill="#5AF7F8" transform="translate(664,460)"/>
<path d="M0 0 C1.32 0 2.64 0 4 0 C4 0.99 4 1.98 4 3 C4.99 3 5.98 3 7 3 C7.33 4.65 7.66 6.3 8 8 C6.85073734 7.04578192 5.70569459 6.08647955 4.5625 5.125 C3.92441406 4.59132813 3.28632812 4.05765625 2.62890625 3.5078125 C1 2 1 2 0 0 Z " fill="#0F3F4B" transform="translate(694,380)"/>
<path d="M0 0 C1.12894876 0.93274109 2.25300876 1.87140122 3.375 2.8125 C4.00148438 3.33457031 4.62796875 3.85664063 5.2734375 4.39453125 C7 6 7 6 9 9 C5.19902189 8.45700313 3.42542103 6.92723228 1 4 C0.38671875 1.86328125 0.38671875 1.86328125 0 0 Z " fill="#81E8ED" transform="translate(613,302)"/>
<path d="M0 0 C4 4 4 4 5 7 C4.125 9.25 4.125 9.25 3 11 C2.67 11 2.34 11 2 11 C1.34 7.37 0.68 3.74 0 0 Z " fill="#10141D" transform="translate(263,562)"/>
<path d="M0 0 C0.33 0.66 0.66 1.32 1 2 C-1.17508418 6.69360269 -1.17508418 6.69360269 -4.1875 7.8125 C-4.785625 7.874375 -5.38375 7.93625 -6 8 C-5.67 7.01 -5.34 6.02 -5 5 C-4.34 5 -3.68 5 -3 5 C-2.5359375 4.0409375 -2.5359375 4.0409375 -2.0625 3.0625 C-1 1 -1 1 0 0 Z " fill="#2F3337" transform="translate(374,538)"/>
<path d="M0 0 C0.99 0.33 1.98 0.66 3 1 C0.69 3.31 -1.62 5.62 -4 8 C-4.33 7.01 -4.66 6.02 -5 5 C-4.34 4.01 -3.68 3.02 -3 2 C-2.01 2 -1.02 2 0 2 C0 1.34 0 0.68 0 0 Z " fill="#063136" transform="translate(655,425)"/>
<path d="M0 0 C0.33 0.99 0.66 1.98 1 3 C0.00390625 4.82421875 0.00390625 4.82421875 -1.4375 6.6875 C-1.91058594 7.31011719 -2.38367188 7.93273437 -2.87109375 8.57421875 C-3.24363281 9.04472656 -3.61617187 9.51523437 -4 10 C-4.33 8.68 -4.66 7.36 -5 6 C-4.34 6 -3.68 6 -3 6 C-3 5.01 -3 4.02 -3 3 C-1.5 1.3125 -1.5 1.3125 0 0 Z " fill="#7CEFF5" transform="translate(716,410)"/>
<path d="M0 0 C2.9375 1.25 2.9375 1.25 6 3 C6.875 5.1875 6.875 5.1875 7 7 C4.08482708 5.92598892 2.22189824 5.22189824 0 3 C0 2.01 0 1.02 0 0 Z " fill="#071D26" transform="translate(706,389)"/>
<path d="M0 0 C0.66 0.33 1.32 0.66 2 1 C0.90931332 4.77545388 0.0916909 7.47043472 -3 10 C-3.66 9.67 -4.32 9.34 -5 9 C-4.360625 8.071875 -3.72125 7.14375 -3.0625 6.1875 C-0.91377907 3.15780057 -0.91377907 3.15780057 0 0 Z " fill="#092E34" transform="translate(612,658)"/>
<path d="M0 0 C0 0.99 0 1.98 0 3 C-2.5 5.1875 -2.5 5.1875 -5 7 C-4.60196439 4.11424181 -4.20990931 3.17810487 -1.9375 1.25 C-1.298125 0.8375 -0.65875 0.425 0 0 Z M-6 7 C-5.67 7.66 -5.34 8.32 -5 9 C-5.66 8.67 -6.32 8.34 -7 8 C-6.67 7.67 -6.34 7.34 -6 7 Z " fill="#12161B" transform="translate(369,545)"/>
<path d="M0 0 C1.32 0 2.64 0 4 0 C5.75 2 5.75 2 7 4 C6.01 4.66 5.02 5.32 4 6 C2.62437146 4.71034824 1.29233607 3.37310707 0 2 C0 1.34 0 0.68 0 0 Z " fill="#041A24" transform="translate(641,393)"/>
<path d="M0 0 C0.33 0 0.66 0 1 0 C1.66 4.29 2.32 8.58 3 13 C2.34 13 1.68 13 1 13 C-0.97387813 8.23947038 -1.0070238 5.03511899 0 0 Z " fill="#242F31" transform="translate(751,238)"/>
<path d="M0 0 C1.17219543 0.78345715 2.33763668 1.57702836 3.5 2.375 C4.47453125 3.03628906 4.47453125 3.03628906 5.46875 3.7109375 C5.9740625 4.13632812 6.479375 4.56171875 7 5 C7 5.66 7 6.32 7 7 C3.76509224 6.44225728 2.02144994 5.62788492 0 3 C0 2.01 0 1.02 0 0 Z " fill="#11171C" transform="translate(758,577)"/>
<path d="M0 0 C1.65 0 3.3 0 5 0 C5.33 1.65 5.66 3.3 6 5 C3.5625 4.1875 3.5625 4.1875 1 3 C0.67 2.01 0.34 1.02 0 0 Z " fill="#6BEBDE" transform="translate(588,514)"/>
<path d="M0 0 C0.66 0.33 1.32 0.66 2 1 C1.21718695 2.33855056 0.42348123 3.67073644 -0.375 5 C-0.81585937 5.7425 -1.25671875 6.485 -1.7109375 7.25 C-2.34902344 8.11625 -2.34902344 8.11625 -3 9 C-3.66 9 -4.32 9 -5 9 C-3.7508258 5.54074837 -2.32472205 2.85306797 0 0 Z " fill="#093432" transform="translate(588,491)"/>
<path d="M0 0 C2.5 1.25 2.5 1.25 5 3 C5 4.32 5 5.64 5 7 C4.01 7.33 3.02 7.66 2 8 C2 6.68 2 5.36 2 4 C1.06716704 1.79932579 1.06716704 1.79932579 0 0 Z " fill="#082E33" transform="translate(671,403)"/>
<path d="M0 0 C1.98 0 3.96 0 6 0 C5.34 1.32 4.68 2.64 4 4 C2.35 3.67 0.7 3.34 -1 3 C-0.67 2.01 -0.34 1.02 0 0 Z " fill="#4EFDEF" transform="translate(770,393)"/>
<path d="M0 0 C2.475 0.495 2.475 0.495 5 1 C5.12375 1.639375 5.2475 2.27875 5.375 2.9375 C5.684375 3.9584375 5.684375 3.9584375 6 5 C6.66 5.33 7.32 5.66 8 6 C5 6 5 6 3.61328125 4.6875 C2.40885417 3.125 1.20442708 1.5625 0 0 Z " fill="#113D44" transform="translate(656,343)"/>
<path d="M0 0 C0.33 0 0.66 0 1 0 C1.36923077 5.53846154 1.36923077 5.53846154 -0.5 7.875 C-1.2425 8.431875 -1.2425 8.431875 -2 9 C-2.66 8.67 -3.32 8.34 -4 8 C-2.68 5.36 -1.36 2.72 0 0 Z " fill="#0E3D40" transform="translate(699,657)"/>
<path d="M0 0 C2.97 0.33 5.94 0.66 9 1 C9 1.99 9 2.98 9 4 C6.03 3.01 3.06 2.02 0 1 C0 0.67 0 0.34 0 0 Z " fill="#0F181F" transform="translate(708,555)"/>
<path d="M0 0 C0 3.10551666 -0.5393715 4.35261084 -2 7 C-3.32 6.67 -4.64 6.34 -6 6 C-4.02 4.02 -2.04 2.04 0 0 Z " fill="#073547" transform="translate(646,482)"/>
<path d="M0 0 C0 3.10551666 -0.5393715 4.35261084 -2 7 C-3.32 6.67 -4.64 6.34 -6 6 C-4.02 4.02 -2.04 2.04 0 0 Z " fill="#121618" transform="translate(431,481)"/>
<path d="M0 0 C-1.36983503 3.16115776 -1.9890638 3.9927092 -5 6 C-5.66 5.34 -6.32 4.68 -7 4 C-2.25 0 -2.25 0 0 0 Z " fill="#77EEEE" transform="translate(669,417)"/>
<path d="M0 0 C0.99 0.33 1.98 0.66 3 1 C3 1.66 3 2.32 3 3 C2.34 3 1.68 3 1 3 C0.34 4.32 -0.32 5.64 -1 7 C-1.66 6.67 -2.32 6.34 -3 6 C-2.01 4.02 -1.02 2.04 0 0 Z " fill="#171C1E" transform="translate(264,332)"/>
<path d="M0 0 C2.16874252 0.50603992 3.99967627 0.99983813 6 2 C6.625 4.5625 6.625 4.5625 7 7 C5.83040013 6.02433888 4.66438823 5.044375 3.5 4.0625 C2.8503125 3.51722656 2.200625 2.97195313 1.53125 2.41015625 C1.0259375 1.94480469 0.520625 1.47945313 0 1 C0 0.67 0 0.34 0 0 Z " fill="#87F3EE" transform="translate(590,324)"/>
<path d="M0 0 C1.32 0.33 2.64 0.66 4 1 C4.33 2.32 4.66 3.64 5 5 C3.68 4.67 2.36 4.34 1 4 C0.67 2.68 0.34 1.36 0 0 Z " fill="#6FE6EB" transform="translate(432,315)"/>
<path d="M0 0 C6.75 0.75 6.75 0.75 9 3 C6 4 6 4 2.8125 2.5625 C1.884375 2.046875 0.95625 1.53125 0 1 C0 0.67 0 0.34 0 0 Z " fill="#1D2C35" transform="translate(513,722)"/>
<path d="M0 0 C0.33 0.66 0.66 1.32 1 2 C3.64 2 6.28 2 9 2 C9 2.33 9 2.66 9 3 C5.37 3.33 1.74 3.66 -2 4 C-2 3.01 -2 2.02 -2 1 C-1.34 0.67 -0.68 0.34 0 0 Z " fill="#4B5D67" transform="translate(766,720)"/>
<path d="M0 0 C1.88391785 3.26545761 2.49287967 6.28111761 3 10 C2.01 9.34 1.02 8.68 0 8 C-0.40843923 5.28796348 -0.13336867 2.7562858 0 0 Z " fill="#071820" transform="translate(754,404)"/>
<path d="M0 0 C2.475 0.99 2.475 0.99 5 2 C4.67 3.32 4.34 4.64 4 6 C3.01 5.67 2.02 5.34 1 5 C0.67 3.35 0.34 1.7 0 0 Z " fill="#11121C" transform="translate(682,364)"/>
</svg>
